<svg width="470" height="470" viewBox="0 0 470 470" fill="none" xmlns="http://www.w3.org/2000/svg">
<path d="M94.0995 245.25C162.74 114.169 202.268 224.877 251.145 201.824C266.905 194.391 302.352 178.226 328.96 164.832C323.238 147.637 194.089 157.178 194.089 157.178C105.849 168.693 140.572 111.22 80.4782 164.832C53.6071 188.805 62.7825 230.304 85.2478 264.596C87.2698 259.131 90.1875 252.721 94.0995 245.25Z" fill="#87EB00"/>
<path d="M204.611 324.554C228.524 308.294 242.638 267.983 268.085 255.306C240.907 226.801 150.338 280.822 106.229 290.642C133.216 318.063 180.697 340.813 204.611 324.554Z" fill="#87EB00"/>
<path d="M275.449 272.324C288.003 363.465 326.463 305.832 389.495 193.514C432.202 117.413 384.873 136.686 328.96 164.832C336.384 187.139 365.77 198.62 333.743 228.91C301.717 259.201 282.056 248.346 268.133 255.282L268.085 255.306C271.864 259.27 274.417 264.829 275.449 272.324Z" fill="#87EB00"/>
<path d="M275.449 272.324C288.003 363.465 326.463 305.832 389.495 193.514C432.202 117.413 384.873 136.686 328.96 164.832C336.384 187.139 365.77 198.62 333.743 228.91C301.717 259.201 282.056 248.346 268.133 255.282L268.085 255.306C271.864 259.27 274.417 264.829 275.449 272.324Z" fill="#87EB00"/>
<path d="M85.2478 264.596C91.4006 273.988 98.5503 282.84 106.229 290.642C53.4781 340.813 75.6929 290.42 85.2478 264.596Z" fill="#87EB00"/>
<path d="M328.96 164.832C302.352 178.226 266.905 194.391 251.145 201.824C202.268 224.877 162.74 114.169 94.0995 245.25C90.1875 252.721 87.2698 259.131 85.2478 264.596M328.96 164.832C323.238 147.637 194.089 157.178 194.089 157.178C105.849 168.693 140.572 111.22 80.4782 164.832C53.6071 188.805 62.7825 230.304 85.2478 264.596M328.96 164.832C336.384 187.139 365.769 198.62 333.743 228.91C301.717 259.201 282.056 248.346 268.133 255.282M328.96 164.832C384.873 136.686 432.202 117.413 389.495 193.514C326.463 305.832 288.003 363.465 275.449 272.324C274.417 264.829 271.864 259.27 268.085 255.306M85.2478 264.596C91.4006 273.988 98.5503 282.84 106.229 290.642M85.2478 264.596C75.6929 290.42 53.4781 340.813 106.229 290.642M268.085 255.306C242.638 267.983 228.524 308.294 204.611 324.554C180.697 340.813 133.216 318.063 106.229 290.642M268.085 255.306C240.907 226.801 150.338 280.822 106.229 290.642M268.085 255.306L268.133 255.282M268.085 255.306C268.101 255.298 268.117 255.29 268.133 255.282" stroke="black" stroke-width="2"/>
</svg>
