<svg width="736" height="184" viewBox="0 0 736 184" fill="none" xmlns="http://www.w3.org/2000/svg">
<rect width="736" height="184" fill="white"/>
<path d="M56.7336 101.042C92.6135 32.5157 113.275 90.3916 138.824 78.34C147.062 74.4539 165.591 66.0036 179.5 59.0013C176.509 50.0119 109 55 109 55C62.8752 61.0199 81.0257 30.9742 49.6135 59.0013C35.5674 71.5337 40.3636 93.2284 52.1067 111.156C53.1636 108.299 54.6887 104.947 56.7336 101.042Z" fill="#87EB00"/>
<path d="M114.5 142.5C127 134 134.377 112.926 147.679 106.299C133.473 91.3974 86.1304 119.638 63.0741 124.772C77.1804 139.107 102 151 114.5 142.5Z" fill="#87EB00"/>
<path d="M151.529 115.196C158.091 162.842 178.194 132.713 211.142 73.9957C233.466 34.212 208.727 44.2873 179.5 59.0013C183.38 70.6629 198.741 76.6647 182 92.5C165.259 108.335 154.982 102.661 147.704 106.287L147.679 106.299C149.654 108.371 150.989 111.277 151.529 115.196Z" fill="#87EB00"/>
<path d="M151.529 115.196C158.091 162.842 178.194 132.713 211.142 73.9957C233.466 34.212 208.727 44.2873 179.5 59.0013C183.38 70.6629 198.741 76.6647 182 92.5C165.259 108.335 154.982 102.661 147.704 106.287L147.679 106.299C149.654 108.371 150.989 111.277 151.529 115.196Z" fill="#87EB00"/>
<path d="M52.1067 111.156C55.3228 116.066 59.0601 120.693 63.0741 124.772C35.5 151 47.1121 124.656 52.1067 111.156Z" fill="#87EB00"/>
<path d="M179.5 59.0013C165.591 66.0036 147.062 74.4539 138.824 78.34C113.275 90.3916 92.6135 32.5157 56.7336 101.042C54.6887 104.947 53.1636 108.299 52.1067 111.156M179.5 59.0013C176.509 50.0119 109 55 109 55C62.8752 61.0199 81.0257 30.9742 49.6135 59.0013C35.5674 71.5337 40.3636 93.2284 52.1067 111.156M179.5 59.0013C183.38 70.6629 198.741 76.6647 182 92.5C165.259 108.335 154.982 102.661 147.704 106.287M179.5 59.0013C208.727 44.2873 233.466 34.212 211.142 73.9957C178.194 132.713 158.091 162.842 151.529 115.196C150.989 111.277 149.654 108.371 147.679 106.299M52.1067 111.156C55.3228 116.066 59.0601 120.693 63.0741 124.772M52.1067 111.156C47.1121 124.656 35.5 151 63.0741 124.772M147.679 106.299C134.377 112.926 127 134 114.5 142.5C102 151 77.1804 139.107 63.0741 124.772M147.679 106.299C133.473 91.3974 86.1304 119.638 63.0741 124.772M147.679 106.299L147.704 106.287M147.679 106.299C147.688 106.295 147.696 106.291 147.704 106.287" stroke="black" stroke-width="2"/>
<path d="M275.704 105.328H271.096V118H254.104V67.6H278.368C283.024 67.6 287.08 68.368 290.536 69.904C293.992 71.44 296.656 73.648 298.528 76.528C300.4 79.408 301.336 82.768 301.336 86.608C301.336 90.208 300.52 93.352 298.888 96.04C297.256 98.728 294.904 100.864 291.832 102.448L302.416 118H284.272L275.704 105.328ZM284.2 86.608C284.2 84.736 283.624 83.296 282.472 82.288C281.32 81.232 279.592 80.704 277.288 80.704H271.096V92.512H277.288C279.592 92.512 281.32 92.008 282.472 91C283.624 89.944 284.2 88.48 284.2 86.608ZM326.544 119.152C322.368 119.152 318.288 118.696 314.304 117.784C310.368 116.824 307.128 115.552 304.584 113.968L310.056 101.584C312.456 102.976 315.144 104.104 318.12 104.968C321.096 105.784 323.952 106.192 326.688 106.192C329.04 106.192 330.72 105.976 331.728 105.544C332.736 105.064 333.24 104.368 333.24 103.456C333.24 102.4 332.568 101.608 331.224 101.08C329.928 100.552 327.768 99.976 324.744 99.352C320.856 98.536 317.616 97.672 315.024 96.76C312.432 95.8 310.176 94.264 308.256 92.152C306.336 89.992 305.376 87.088 305.376 83.44C305.376 80.272 306.264 77.392 308.04 74.8C309.816 72.208 312.456 70.168 315.96 68.68C319.512 67.192 323.808 66.448 328.848 66.448C332.304 66.448 335.688 66.832 339 67.6C342.36 68.32 345.312 69.4 347.856 70.84L342.744 83.152C337.8 80.656 333.12 79.408 328.704 79.408C324.336 79.408 322.152 80.464 322.152 82.576C322.152 83.584 322.8 84.352 324.096 84.88C325.392 85.36 327.528 85.888 330.504 86.464C334.344 87.184 337.584 88.024 340.224 88.984C342.864 89.896 345.144 91.408 347.064 93.52C349.032 95.632 350.016 98.512 350.016 102.16C350.016 105.328 349.128 108.208 347.352 110.8C345.576 113.344 342.912 115.384 339.36 116.92C335.856 118.408 331.584 119.152 326.544 119.152ZM373.865 119.152C369.689 119.152 365.609 118.696 361.625 117.784C357.689 116.824 354.449 115.552 351.905 113.968L357.377 101.584C359.777 102.976 362.465 104.104 365.441 104.968C368.417 105.784 371.273 106.192 374.009 106.192C376.361 106.192 378.041 105.976 379.049 105.544C380.057 105.064 380.561 104.368 380.561 103.456C380.561 102.4 379.889 101.608 378.545 101.08C377.249 100.552 375.089 99.976 372.065 99.352C368.177 98.536 364.937 97.672 362.345 96.76C359.753 95.8 357.497 94.264 355.577 92.152C353.657 89.992 352.697 87.088 352.697 83.44C352.697 80.272 353.585 77.392 355.361 74.8C357.137 72.208 359.777 70.168 363.281 68.68C366.833 67.192 371.129 66.448 376.169 66.448C379.625 66.448 383.009 66.832 386.321 67.6C389.681 68.32 392.633 69.4 395.177 70.84L390.065 83.152C385.121 80.656 380.441 79.408 376.025 79.408C371.657 79.408 369.473 80.464 369.473 82.576C369.473 83.584 370.121 84.352 371.417 84.88C372.713 85.36 374.849 85.888 377.825 86.464C381.665 87.184 384.905 88.024 387.545 88.984C390.185 89.896 392.465 91.408 394.385 93.52C396.353 95.632 397.337 98.512 397.337 102.16C397.337 105.328 396.449 108.208 394.673 110.8C392.897 113.344 390.233 115.384 386.681 116.92C383.177 118.408 378.905 119.152 373.865 119.152ZM428.673 87.544C432.561 88.504 435.537 90.256 437.601 92.8C439.713 95.296 440.769 98.32 440.769 101.872C440.769 104.896 439.929 107.728 438.249 110.368C436.617 112.96 434.073 115.072 430.617 116.704C427.161 118.336 422.865 119.152 417.729 119.152C414.177 119.152 410.625 118.768 407.073 118C403.569 117.232 400.497 116.104 397.857 114.616L403.617 102.088C405.681 103.288 407.889 104.2 410.241 104.824C412.641 105.448 414.945 105.76 417.153 105.76C419.121 105.76 420.705 105.424 421.905 104.752C423.105 104.08 423.705 103.12 423.705 101.872C423.705 99.568 421.713 98.416 417.729 98.416H411.033V87.976L418.449 80.416H400.449V67.6H438.033V78.04L428.673 87.544ZM453.46 96.472C450.724 96.472 448.444 95.608 446.62 93.88C444.844 92.104 443.956 89.848 443.956 87.112C443.956 84.376 444.844 82.168 446.62 80.488C448.444 78.76 450.724 77.896 453.46 77.896C456.196 77.896 458.452 78.76 460.228 80.488C462.052 82.168 462.964 84.376 462.964 87.112C462.964 89.848 462.052 92.104 460.228 93.88C458.452 95.608 456.196 96.472 453.46 96.472ZM453.46 118.72C450.724 118.72 448.444 117.856 446.62 116.128C444.844 114.352 443.956 112.096 443.956 109.36C443.956 106.624 444.844 104.416 446.62 102.736C448.444 101.008 450.724 100.144 453.46 100.144C456.196 100.144 458.452 101.008 460.228 102.736C462.052 104.416 462.964 106.624 462.964 109.36C462.964 112.096 462.052 114.352 460.228 116.128C458.452 117.856 456.196 118.72 453.46 118.72ZM508.865 119.152C504.689 119.152 500.609 118.696 496.625 117.784C492.689 116.824 489.449 115.552 486.905 113.968L492.377 101.584C494.777 102.976 497.465 104.104 500.441 104.968C503.417 105.784 506.273 106.192 509.009 106.192C511.361 106.192 513.041 105.976 514.049 105.544C515.057 105.064 515.561 104.368 515.561 103.456C515.561 102.4 514.889 101.608 513.545 101.08C512.249 100.552 510.089 99.976 507.065 99.352C503.177 98.536 499.937 97.672 497.345 96.76C494.753 95.8 492.497 94.264 490.577 92.152C488.657 89.992 487.697 87.088 487.697 83.44C487.697 80.272 488.585 77.392 490.361 74.8C492.137 72.208 494.777 70.168 498.281 68.68C501.833 67.192 506.129 66.448 511.169 66.448C514.625 66.448 518.009 66.832 521.321 67.6C524.681 68.32 527.633 69.4 530.177 70.84L525.065 83.152C520.121 80.656 515.441 79.408 511.025 79.408C506.657 79.408 504.473 80.464 504.473 82.576C504.473 83.584 505.121 84.352 506.417 84.88C507.713 85.36 509.849 85.888 512.825 86.464C516.665 87.184 519.905 88.024 522.545 88.984C525.185 89.896 527.465 91.408 529.385 93.52C531.353 95.632 532.337 98.512 532.337 102.16C532.337 105.328 531.449 108.208 529.673 110.8C527.897 113.344 525.233 115.384 521.681 116.92C518.177 118.408 513.905 119.152 508.865 119.152ZM558.057 118.72C553.593 118.72 549.585 117.856 546.033 116.128C542.529 114.4 539.769 111.976 537.753 108.856C535.785 105.736 534.801 102.208 534.801 98.272C534.801 94.336 535.785 90.832 537.753 87.76C539.769 84.64 542.529 82.216 546.033 80.488C549.585 78.76 553.593 77.896 558.057 77.896C562.857 77.896 566.961 78.928 570.369 80.992C573.777 83.056 576.129 85.912 577.425 89.56L564.825 95.752C563.289 92.296 561.009 90.568 557.985 90.568C556.065 90.568 554.457 91.24 553.161 92.584C551.913 93.928 551.289 95.824 551.289 98.272C551.289 100.768 551.913 102.688 553.161 104.032C554.457 105.376 556.065 106.048 557.985 106.048C561.009 106.048 563.289 104.32 564.825 100.864L577.425 107.056C576.129 110.704 573.777 113.56 570.369 115.624C566.961 117.688 562.857 118.72 558.057 118.72ZM598.826 77.896C605.738 77.896 611.018 79.456 614.666 82.576C618.314 85.648 620.138 90.4 620.138 96.832V118H605.018V112.816C603.146 116.752 599.426 118.72 593.858 118.72C590.738 118.72 588.074 118.192 585.866 117.136C583.706 116.032 582.05 114.568 580.898 112.744C579.794 110.872 579.242 108.784 579.242 106.48C579.242 102.592 580.73 99.64 583.706 97.624C586.682 95.608 591.194 94.6 597.242 94.6H603.794C603.266 91.528 600.794 89.992 596.378 89.992C594.602 89.992 592.802 90.28 590.978 90.856C589.154 91.384 587.594 92.128 586.298 93.088L581.114 82.36C583.37 80.968 586.082 79.888 589.25 79.12C592.466 78.304 595.658 77.896 598.826 77.896ZM598.754 108.928C599.906 108.928 600.938 108.616 601.85 107.992C602.762 107.368 603.434 106.432 603.866 105.184V102.448H599.834C596.522 102.448 594.866 103.552 594.866 105.76C594.866 106.672 595.202 107.44 595.874 108.064C596.594 108.64 597.554 108.928 598.754 108.928ZM654.53 77.896C659.378 77.896 663.266 79.36 666.194 82.288C669.17 85.216 670.658 89.632 670.658 95.536V118H654.386V98.344C654.386 93.832 652.778 91.576 649.562 91.576C647.738 91.576 646.25 92.224 645.098 93.52C643.994 94.768 643.442 96.76 643.442 99.496V118H627.17V78.616H642.65V82.504C644.186 80.968 645.962 79.816 647.978 79.048C649.994 78.28 652.178 77.896 654.53 77.896Z" fill="#87EB00"/>
<path d="M275.704 105.328L276.532 104.768L276.235 104.328H275.704V105.328ZM271.096 105.328V104.328H270.096V105.328H271.096ZM271.096 118V119H272.096V118H271.096ZM254.104 118H253.104V119H254.104V118ZM254.104 67.6V66.6H253.104V67.6H254.104ZM290.536 69.904L290.13 70.8178L290.13 70.8178L290.536 69.904ZM298.528 76.528L297.69 77.073L297.69 77.073L298.528 76.528ZM298.888 96.04L298.033 95.521L298.033 95.521L298.888 96.04ZM291.832 102.448L291.374 101.559L290.37 102.077L291.005 103.011L291.832 102.448ZM302.416 118V119H304.306L303.243 117.437L302.416 118ZM284.272 118L283.444 118.56L283.741 119H284.272V118ZM282.472 82.288L281.796 83.0252L281.805 83.033L281.813 83.0406L282.472 82.288ZM271.096 80.704V79.704H270.096V80.704H271.096ZM271.096 92.512H270.096V93.512H271.096V92.512ZM282.472 91L283.131 91.7526L283.139 91.745L283.148 91.7372L282.472 91ZM275.704 104.328H271.096V106.328H275.704V104.328ZM270.096 105.328V118H272.096V105.328H270.096ZM271.096 117H254.104V119H271.096V117ZM255.104 118V67.6H253.104V118H255.104ZM254.104 68.6H278.368V66.6H254.104V68.6ZM278.368 68.6C282.916 68.6 286.828 69.3502 290.13 70.8178L290.942 68.9902C287.332 67.3858 283.132 66.6 278.368 66.6V68.6ZM290.13 70.8178C293.428 72.2835 295.934 74.3714 297.69 77.073L299.366 75.983C297.379 72.9246 294.556 70.5965 290.942 68.9902L290.13 70.8178ZM297.69 77.073C299.444 79.7721 300.336 82.9379 300.336 86.608H302.336C302.336 82.5981 301.356 79.0439 299.366 75.983L297.69 77.073ZM300.336 86.608C300.336 90.052 299.557 93.0111 298.033 95.521L299.743 96.559C301.483 93.6929 302.336 90.364 302.336 86.608H300.336ZM298.033 95.521C296.506 98.0362 294.299 100.051 291.374 101.559L292.29 103.337C295.509 101.677 298.006 99.4198 299.743 96.559L298.033 95.521ZM291.005 103.011L301.589 118.563L303.243 117.437L292.659 101.885L291.005 103.011ZM302.416 117H284.272V119H302.416V117ZM285.1 117.44L276.532 104.768L274.876 105.888L283.444 118.56L285.1 117.44ZM285.2 86.608C285.2 84.5175 284.547 82.7749 283.131 81.5354L281.813 83.0406C282.701 83.8171 283.2 84.9545 283.2 86.608H285.2ZM283.148 81.5508C281.74 80.2608 279.726 79.704 277.288 79.704V81.704C279.458 81.704 280.9 82.2032 281.796 83.0252L283.148 81.5508ZM277.288 79.704H271.096V81.704H277.288V79.704ZM270.096 80.704V92.512H272.096V80.704H270.096ZM271.096 93.512H277.288V91.512H271.096V93.512ZM277.288 93.512C279.716 93.512 281.723 92.9838 283.131 91.7526L281.813 90.2474C280.917 91.0322 279.468 91.512 277.288 91.512V93.512ZM283.148 91.7372C284.547 90.4545 285.2 88.7001 285.2 86.608H283.2C283.2 88.2599 282.701 89.4335 281.796 90.2628L283.148 91.7372ZM314.304 117.784L314.067 118.756L314.074 118.757L314.081 118.759L314.304 117.784ZM304.584 113.968L303.67 113.564L303.319 114.358L304.056 114.817L304.584 113.968ZM310.056 101.584L310.558 100.719L309.593 100.159L309.142 101.18L310.056 101.584ZM318.12 104.968L317.842 105.928L317.849 105.93L317.856 105.932L318.12 104.968ZM331.728 105.544L332.122 106.463L332.141 106.455L332.158 106.447L331.728 105.544ZM331.224 101.08L330.847 102.006L330.859 102.011L331.224 101.08ZM324.744 99.352L324.539 100.331L324.542 100.331L324.744 99.352ZM315.024 96.76L314.677 97.6977L314.685 97.7006L314.693 97.7033L315.024 96.76ZM308.256 92.152L307.509 92.8164L307.516 92.8247L308.256 92.152ZM308.04 74.8L308.865 75.3652L308.865 75.3652L308.04 74.8ZM315.96 68.68L315.574 67.7576L315.57 67.7596L315.96 68.68ZM339 67.6L338.775 68.5741L338.783 68.576L338.791 68.5778L339 67.6ZM347.856 70.84L348.78 71.2235L349.119 70.4058L348.349 69.9697L347.856 70.84ZM342.744 83.152L342.294 84.0447L343.255 84.53L343.668 83.5355L342.744 83.152ZM324.096 84.88L323.719 85.8061L323.734 85.8122L323.749 85.8177L324.096 84.88ZM330.504 86.464L330.314 87.4458L330.32 87.4469L330.504 86.464ZM340.224 88.984L339.883 89.9238L339.89 89.9266L339.898 89.9292L340.224 88.984ZM347.064 93.52L346.324 94.1927L346.333 94.2017L347.064 93.52ZM347.352 110.8L348.172 111.372L348.177 111.365L347.352 110.8ZM339.36 116.92L339.751 117.84L339.757 117.838L339.36 116.92ZM326.544 118.152C322.442 118.152 318.437 117.704 314.528 116.809L314.081 118.759C318.14 119.688 322.295 120.152 326.544 120.152V118.152ZM314.541 116.812C310.675 115.869 307.542 114.631 305.113 113.119L304.056 114.817C306.715 116.473 310.062 117.779 314.067 118.756L314.541 116.812ZM305.499 114.372L310.971 101.988L309.142 101.18L303.67 113.564L305.499 114.372ZM309.555 102.449C312.033 103.886 314.797 105.044 317.842 105.928L318.399 104.008C315.492 103.164 312.88 102.066 310.558 100.719L309.555 102.449ZM317.856 105.932C320.907 106.769 323.853 107.192 326.688 107.192V105.192C324.052 105.192 321.286 104.799 318.385 104.004L317.856 105.932ZM326.688 107.192C329.056 107.192 330.914 106.981 332.122 106.463L331.335 104.625C330.527 104.971 329.025 105.192 326.688 105.192V107.192ZM332.158 106.447C332.77 106.156 333.297 105.767 333.672 105.249C334.056 104.719 334.24 104.109 334.24 103.456H332.24C332.24 103.715 332.173 103.909 332.052 104.075C331.924 104.253 331.695 104.452 331.299 104.641L332.158 106.447ZM334.24 103.456C334.24 102.695 333.991 102.003 333.499 101.423C333.023 100.862 332.359 100.451 331.59 100.149L330.859 102.011C331.434 102.237 331.778 102.486 331.974 102.717C332.154 102.929 332.24 103.161 332.24 103.456H334.24ZM331.602 100.154C330.214 99.5886 327.977 98.9979 324.947 98.3726L324.542 100.331C327.56 100.954 329.643 101.515 330.847 102.006L331.602 100.154ZM324.95 98.3733C321.088 97.5627 317.893 96.7093 315.356 95.8167L314.693 97.7033C317.34 98.6347 320.625 99.5093 324.539 100.331L324.95 98.3733ZM315.372 95.8223C312.935 94.9197 310.812 93.4768 308.996 91.4793L307.516 92.8247C309.541 95.0512 311.93 96.6803 314.677 97.6977L315.372 95.8223ZM309.004 91.4876C307.286 89.5549 306.376 86.9095 306.376 83.44H304.376C304.376 87.2665 305.387 90.4291 307.509 92.8164L309.004 91.4876ZM306.376 83.44C306.376 80.472 307.204 77.7893 308.865 75.3652L307.216 74.2348C305.324 76.9947 304.376 80.072 304.376 83.44H306.376ZM308.865 75.3652C310.513 72.9611 312.985 71.0298 316.351 69.6004L315.57 67.7596C311.927 69.3062 309.12 71.4549 307.216 74.2348L308.865 75.3652ZM316.347 69.6023C319.745 68.1788 323.902 67.448 328.848 67.448V65.448C323.715 65.448 319.28 66.2052 315.574 67.7577L316.347 69.6023ZM328.848 67.448C332.23 67.448 335.538 67.8236 338.775 68.5741L339.226 66.6258C335.839 65.8404 332.379 65.448 328.848 65.448V67.448ZM338.791 68.5778C342.069 69.2802 344.922 70.3281 347.364 71.7103L348.349 69.9697C345.703 68.4719 342.652 67.3598 339.21 66.6222L338.791 68.5778ZM346.933 70.4565L341.821 82.7685L343.668 83.5355L348.78 71.2235L346.933 70.4565ZM343.195 82.2593C338.146 79.7103 333.312 78.408 328.704 78.408V80.408C332.929 80.408 337.455 81.6017 342.294 84.0447L343.195 82.2593ZM328.704 78.408C326.472 78.408 324.652 78.6727 323.355 79.2997C322.693 79.6198 322.132 80.0512 321.739 80.6224C321.339 81.2016 321.152 81.866 321.152 82.576H323.152C323.152 82.23 323.239 81.9704 323.385 81.7576C323.537 81.5368 323.796 81.3082 324.226 81.1003C325.113 80.6713 326.569 80.408 328.704 80.408V78.408ZM321.152 82.576C321.152 83.3152 321.397 83.9878 321.874 84.5529C322.335 85.0995 322.977 85.5037 323.719 85.8061L324.474 83.9539C323.92 83.7283 323.59 83.4845 323.403 83.2631C323.231 83.0601 323.152 82.8448 323.152 82.576H321.152ZM323.749 85.8177C325.127 86.3283 327.333 86.8686 330.314 87.4458L330.694 85.4822C327.724 84.9073 325.657 84.3917 324.444 83.9423L323.749 85.8177ZM330.32 87.4469C334.126 88.1604 337.309 88.988 339.883 89.9238L340.566 88.0442C337.86 87.06 334.563 86.2076 330.689 85.4811L330.32 87.4469ZM339.898 89.9292C342.376 90.7852 344.515 92.2019 346.325 94.1927L347.804 92.8473C345.774 90.6141 343.353 89.0068 340.551 88.0388L339.898 89.9292ZM346.333 94.2017C348.086 96.0834 349.016 98.6955 349.016 102.16H351.016C351.016 98.3285 349.979 95.1806 347.796 92.8383L346.333 94.2017ZM349.016 102.16C349.016 105.128 348.188 107.811 346.528 110.235L348.177 111.365C350.068 108.605 351.016 105.528 351.016 102.16H349.016ZM346.532 110.228C344.886 112.586 342.387 114.522 338.964 116.002L339.757 117.838C343.438 116.246 346.267 114.102 348.172 111.372L346.532 110.228ZM338.97 116C335.622 117.421 331.491 118.152 326.544 118.152V120.152C331.677 120.152 336.091 119.395 339.751 117.84L338.97 116ZM361.625 117.784L361.388 118.756L361.395 118.757L361.402 118.759L361.625 117.784ZM351.905 113.968L350.99 113.564L350.639 114.358L351.376 114.817L351.905 113.968ZM357.377 101.584L357.878 100.719L356.913 100.159L356.462 101.18L357.377 101.584ZM365.441 104.968L365.162 105.928L365.169 105.93L365.176 105.932L365.441 104.968ZM379.049 105.544L379.443 106.463L379.461 106.455L379.479 106.447L379.049 105.544ZM378.545 101.08L378.167 102.006L378.179 102.011L378.545 101.08ZM372.065 99.352L371.859 100.331L371.863 100.331L372.065 99.352ZM362.345 96.76L361.997 97.6977L362.005 97.7006L362.013 97.7033L362.345 96.76ZM355.577 92.152L354.829 92.8164L354.837 92.8247L355.577 92.152ZM355.361 74.8L356.186 75.3652L356.186 75.3652L355.361 74.8ZM363.281 68.68L362.894 67.7576L362.89 67.7596L363.281 68.68ZM386.321 67.6L386.095 68.5741L386.103 68.576L386.111 68.5778L386.321 67.6ZM395.177 70.84L396.1 71.2235L396.44 70.4058L395.669 69.9697L395.177 70.84ZM390.065 83.152L389.614 84.0447L390.575 84.53L390.988 83.5355L390.065 83.152ZM371.417 84.88L371.039 85.8061L371.054 85.8122L371.069 85.8177L371.417 84.88ZM377.825 86.464L377.635 87.4458L377.64 87.4469L377.825 86.464ZM387.545 88.984L387.203 89.9238L387.211 89.9266L387.218 89.9292L387.545 88.984ZM394.385 93.52L393.645 94.1927L393.653 94.2017L394.385 93.52ZM394.673 110.8L395.493 111.372L395.498 111.365L394.673 110.8ZM386.681 116.92L387.072 117.84L387.078 117.838L386.681 116.92ZM373.865 118.152C369.762 118.152 365.757 117.704 361.848 116.809L361.402 118.759C365.46 119.688 369.615 120.152 373.865 120.152V118.152ZM361.862 116.812C357.995 115.869 354.862 114.631 352.433 113.119L351.376 114.817C354.036 116.473 357.382 117.779 361.388 118.756L361.862 116.812ZM352.819 114.372L358.291 101.988L356.462 101.18L350.99 113.564L352.819 114.372ZM356.875 102.449C359.353 103.886 362.117 105.044 365.162 105.928L365.72 104.008C362.813 103.164 360.201 102.066 357.878 100.719L356.875 102.449ZM365.176 105.932C368.228 106.769 371.173 107.192 374.009 107.192V105.192C371.373 105.192 368.606 104.799 365.705 104.004L365.176 105.932ZM374.009 107.192C376.376 107.192 378.234 106.981 379.443 106.463L378.655 104.625C377.848 104.971 376.345 105.192 374.009 105.192V107.192ZM379.479 106.447C380.09 106.156 380.617 105.767 380.993 105.249C381.376 104.719 381.561 104.109 381.561 103.456H379.561C379.561 103.715 379.493 103.909 379.373 104.075C379.244 104.253 379.016 104.452 378.619 104.641L379.479 106.447ZM381.561 103.456C381.561 102.695 381.311 102.003 380.819 101.423C380.343 100.862 379.679 100.451 378.91 100.149L378.179 102.011C378.754 102.237 379.099 102.486 379.294 102.717C379.474 102.929 379.561 103.161 379.561 103.456H381.561ZM378.922 100.154C377.535 99.5886 375.297 98.9979 372.267 98.3726L371.863 100.331C374.881 100.954 376.963 101.515 378.167 102.006L378.922 100.154ZM372.27 98.3733C368.408 97.5627 365.214 96.7093 362.677 95.8167L362.013 97.7033C364.66 98.6347 367.946 99.5093 371.859 100.331L372.27 98.3733ZM362.692 95.8223C360.255 94.9197 358.133 93.4768 356.317 91.4793L354.837 92.8247C356.861 95.0512 359.25 96.6803 361.997 97.6977L362.692 95.8223ZM356.324 91.4876C354.606 89.5549 353.697 86.9095 353.697 83.44H351.697C351.697 87.2665 352.707 90.4291 354.829 92.8164L356.324 91.4876ZM353.697 83.44C353.697 80.472 354.525 77.7893 356.186 75.3652L354.536 74.2348C352.645 76.9947 351.697 80.072 351.697 83.44H353.697ZM356.186 75.3652C357.833 72.9611 360.306 71.0298 363.672 69.6004L362.89 67.7596C359.248 69.3062 356.441 71.4549 354.536 74.2348L356.186 75.3652ZM363.667 69.6023C367.065 68.1788 371.222 67.448 376.169 67.448V65.448C371.035 65.448 366.6 66.2052 362.894 67.7577L363.667 69.6023ZM376.169 67.448C379.55 67.448 382.858 67.8236 386.095 68.5741L386.547 66.6258C383.159 65.8404 379.7 65.448 376.169 65.448V67.448ZM386.111 68.5778C389.389 69.2802 392.242 70.3281 394.684 71.7103L395.669 69.9697C393.023 68.4719 389.973 67.3598 386.53 66.6222L386.111 68.5778ZM394.253 70.4565L389.141 82.7685L390.988 83.5355L396.1 71.2235L394.253 70.4565ZM390.515 82.2593C385.466 79.7103 380.632 78.408 376.025 78.408V80.408C380.249 80.408 384.775 81.6017 389.614 84.0447L390.515 82.2593ZM376.025 78.408C373.792 78.408 371.972 78.6727 370.675 79.2997C370.014 79.6198 369.453 80.0512 369.059 80.6224C368.66 81.2016 368.473 81.866 368.473 82.576H370.473C370.473 82.23 370.559 81.9704 370.706 81.7576C370.858 81.5368 371.116 81.3082 371.546 81.1003C372.433 80.6713 373.889 80.408 376.025 80.408V78.408ZM368.473 82.576C368.473 83.3152 368.718 83.9878 369.194 84.5529C369.656 85.0995 370.297 85.5037 371.039 85.8061L371.794 83.9539C371.24 83.7283 370.91 83.4845 370.723 83.2631C370.552 83.0601 370.473 82.8448 370.473 82.576H368.473ZM371.069 85.8177C372.448 86.3283 374.653 86.8686 377.635 87.4458L378.015 85.4822C375.045 84.9073 372.978 84.3917 371.764 83.9423L371.069 85.8177ZM377.64 87.4469C381.446 88.1604 384.63 88.988 387.203 89.9238L387.886 88.0442C385.18 87.06 381.884 86.2076 378.009 85.4811L377.64 87.4469ZM387.218 89.9292C389.696 90.7852 391.835 92.2019 393.645 94.1927L395.125 92.8473C393.094 90.6141 390.673 89.0068 387.871 88.0388L387.218 89.9292ZM393.653 94.2017C395.407 96.0834 396.337 98.6955 396.337 102.16H398.337C398.337 98.3285 397.299 95.1806 395.116 92.8383L393.653 94.2017ZM396.337 102.16C396.337 105.128 395.509 107.811 393.848 110.235L395.498 111.365C397.389 108.605 398.337 105.528 398.337 102.16H396.337ZM393.853 110.228C392.206 112.586 389.707 114.522 386.284 116.002L387.078 117.838C390.758 116.246 393.587 114.102 395.493 111.372L393.853 110.228ZM386.29 116C382.943 117.421 378.812 118.152 373.865 118.152V120.152C378.998 120.152 383.411 119.395 387.072 117.84L386.29 116ZM428.673 87.544L427.961 86.8423L426.728 88.0938L428.433 88.5148L428.673 87.544ZM437.601 92.8L436.825 93.43L436.831 93.4381L436.838 93.4459L437.601 92.8ZM438.249 110.368L437.405 109.831L437.403 109.835L438.249 110.368ZM430.617 116.704L431.044 117.608L431.044 117.608L430.617 116.704ZM407.073 118L406.859 118.977L406.862 118.977L407.073 118ZM397.857 114.616L396.948 114.198L396.564 115.035L397.366 115.487L397.857 114.616ZM403.617 102.088L404.12 101.223L403.168 100.67L402.708 101.67L403.617 102.088ZM410.241 104.824L409.985 105.791L409.989 105.792L410.241 104.824ZM421.905 104.752L421.416 103.879L421.416 103.879L421.905 104.752ZM411.033 98.416H410.033V99.416H411.033V98.416ZM411.033 87.976L410.319 87.2757L410.033 87.5674V87.976H411.033ZM418.449 80.416L419.163 81.1163L420.831 79.416H418.449V80.416ZM400.449 80.416H399.449V81.416H400.449V80.416ZM400.449 67.6V66.6H399.449V67.6H400.449ZM438.033 67.6H439.033V66.6H438.033V67.6ZM438.033 78.04L438.746 78.7417L439.033 78.4497V78.04H438.033ZM428.433 88.5148C432.158 89.4346 434.926 91.0898 436.825 93.43L438.378 92.17C436.148 89.4222 432.964 87.5734 428.913 86.5732L428.433 88.5148ZM436.838 93.4459C438.783 95.7453 439.769 98.5345 439.769 101.872H441.769C441.769 98.1055 440.643 94.8467 438.364 92.1541L436.838 93.4459ZM439.769 101.872C439.769 104.699 438.987 107.346 437.405 109.831L439.093 110.905C440.871 108.11 441.769 105.093 441.769 101.872H439.769ZM437.403 109.835C435.895 112.23 433.516 114.229 430.19 115.8L431.044 117.608C434.63 115.915 437.339 113.69 439.095 110.901L437.403 109.835ZM430.19 115.8C426.905 117.351 422.766 118.152 417.729 118.152V120.152C422.965 120.152 427.417 119.321 431.044 117.608L430.19 115.8ZM417.729 118.152C414.25 118.152 410.769 117.776 407.284 117.023L406.862 118.977C410.482 119.76 414.104 120.152 417.729 120.152V118.152ZM407.287 117.023C403.863 116.273 400.887 115.176 398.348 113.745L397.366 115.487C400.107 117.032 403.275 118.191 406.859 118.977L407.287 117.023ZM398.766 115.034L404.526 102.506L402.708 101.67L396.948 114.198L398.766 115.034ZM403.114 102.953C405.257 104.198 407.548 105.144 409.985 105.791L410.497 103.857C408.23 103.256 406.105 102.378 404.12 101.223L403.114 102.953ZM409.989 105.792C412.462 106.435 414.85 106.76 417.153 106.76V104.76C415.04 104.76 412.82 104.461 410.493 103.856L409.989 105.792ZM417.153 106.76C419.223 106.76 420.994 106.408 422.394 105.625L421.416 103.879C420.416 104.44 419.019 104.76 417.153 104.76V106.76ZM422.394 105.625C423.87 104.798 424.705 103.525 424.705 101.872H422.705C422.705 102.715 422.34 103.362 421.416 103.879L422.394 105.625ZM424.705 101.872C424.705 100.364 424.017 99.1693 422.712 98.4143C421.489 97.7074 419.785 97.416 417.729 97.416V99.416C419.657 99.416 420.941 99.7006 421.71 100.146C422.397 100.543 422.705 101.076 422.705 101.872H424.705ZM417.729 97.416H411.033V99.416H417.729V97.416ZM412.033 98.416V87.976H410.033V98.416H412.033ZM411.747 88.6763L419.163 81.1163L417.735 79.7157L410.319 87.2757L411.747 88.6763ZM418.449 79.416H400.449V81.416H418.449V79.416ZM401.449 80.416V67.6H399.449V80.416H401.449ZM400.449 68.6H438.033V66.6H400.449V68.6ZM437.033 67.6V78.04H439.033V67.6H437.033ZM437.321 77.3383L427.961 86.8423L429.386 88.2457L438.746 78.7417L437.321 77.3383ZM446.62 93.88L445.913 94.5871L445.922 94.5967L445.932 94.606L446.62 93.88ZM446.62 80.488L447.307 81.2145L447.307 81.214L446.62 80.488ZM460.228 80.488L459.53 81.2047L459.54 81.2143L459.55 81.2235L460.228 80.488ZM460.228 93.88L460.925 94.5967L460.925 94.5965L460.228 93.88ZM446.62 116.128L445.913 116.835L445.922 116.845L445.932 116.854L446.62 116.128ZM446.62 102.736L447.307 103.462L447.307 103.462L446.62 102.736ZM460.228 102.736L459.53 103.453L459.54 103.462L459.55 103.472L460.228 102.736ZM460.228 116.128L460.925 116.845L460.925 116.844L460.228 116.128ZM453.46 95.472C450.955 95.472 448.928 94.6897 447.307 93.154L445.932 94.606C447.959 96.5263 450.493 97.472 453.46 97.472V95.472ZM447.327 93.1729C445.756 91.6021 444.956 89.6089 444.956 87.112H442.956C442.956 90.0871 443.931 92.6059 445.913 94.5871L447.327 93.1729ZM444.956 87.112C444.956 84.6147 445.755 82.6821 447.307 81.2145L445.932 79.7615C443.932 81.6539 442.956 84.1373 442.956 87.112H444.956ZM447.307 81.214C448.928 79.6783 450.955 78.896 453.46 78.896V76.896C450.493 76.896 447.959 77.8417 445.932 79.762L447.307 81.214ZM453.46 78.896C455.965 78.896 457.961 79.678 459.53 81.2047L460.925 79.7713C458.942 77.842 456.426 76.896 453.46 76.896V78.896ZM459.55 81.2235C461.146 82.6935 461.964 84.6234 461.964 87.112H463.964C463.964 84.1286 462.957 81.6425 460.905 79.7525L459.55 81.2235ZM461.964 87.112C461.964 89.6005 461.145 91.5908 459.53 93.1635L460.925 94.5965C462.958 92.6172 463.964 90.0955 463.964 87.112H461.964ZM459.53 93.1633C457.961 94.69 455.965 95.472 453.46 95.472V97.472C456.426 97.472 458.942 96.526 460.925 94.5967L459.53 93.1633ZM453.46 117.72C450.955 117.72 448.928 116.938 447.307 115.402L445.932 116.854C447.959 118.774 450.493 119.72 453.46 119.72V117.72ZM447.327 115.421C445.756 113.85 444.956 111.857 444.956 109.36H442.956C442.956 112.335 443.931 114.854 445.913 116.835L447.327 115.421ZM444.956 109.36C444.956 106.863 445.755 104.93 447.307 103.462L445.932 102.01C443.932 103.902 442.956 106.385 442.956 109.36H444.956ZM447.307 103.462C448.928 101.926 450.955 101.144 453.46 101.144V99.144C450.493 99.144 447.959 100.09 445.932 102.01L447.307 103.462ZM453.46 101.144C455.965 101.144 457.961 101.926 459.53 103.453L460.925 102.019C458.942 100.09 456.426 99.144 453.46 99.144V101.144ZM459.55 103.472C461.146 104.941 461.964 106.871 461.964 109.36H463.964C463.964 106.377 462.957 103.891 460.905 102L459.55 103.472ZM461.964 109.36C461.964 111.849 461.145 113.839 459.53 115.412L460.925 116.844C462.958 114.865 463.964 112.343 463.964 109.36H461.964ZM459.53 115.411C457.961 116.938 455.965 117.72 453.46 117.72V119.72C456.426 119.72 458.942 118.774 460.925 116.845L459.53 115.411ZM496.625 117.784L496.388 118.756L496.395 118.757L496.402 118.759L496.625 117.784ZM486.905 113.968L485.99 113.564L485.639 114.358L486.376 114.817L486.905 113.968ZM492.377 101.584L492.878 100.719L491.913 100.159L491.462 101.18L492.377 101.584ZM500.441 104.968L500.162 105.928L500.169 105.93L500.176 105.932L500.441 104.968ZM514.049 105.544L514.443 106.463L514.461 106.455L514.479 106.447L514.049 105.544ZM513.545 101.08L513.167 102.006L513.179 102.011L513.545 101.08ZM507.065 99.352L506.859 100.331L506.863 100.331L507.065 99.352ZM497.345 96.76L496.997 97.6977L497.005 97.7006L497.013 97.7033L497.345 96.76ZM490.577 92.152L489.829 92.8164L489.837 92.8247L490.577 92.152ZM490.361 74.8L491.186 75.3652L491.186 75.3652L490.361 74.8ZM498.281 68.68L497.894 67.7576L497.89 67.7596L498.281 68.68ZM521.321 67.6L521.095 68.5741L521.103 68.576L521.111 68.5778L521.321 67.6ZM530.177 70.84L531.1 71.2235L531.44 70.4058L530.669 69.9697L530.177 70.84ZM525.065 83.152L524.614 84.0447L525.575 84.53L525.988 83.5355L525.065 83.152ZM506.417 84.88L506.039 85.8061L506.054 85.8122L506.069 85.8177L506.417 84.88ZM512.825 86.464L512.635 87.4458L512.64 87.4469L512.825 86.464ZM522.545 88.984L522.203 89.9238L522.211 89.9266L522.218 89.9292L522.545 88.984ZM529.385 93.52L528.645 94.1927L528.653 94.2017L529.385 93.52ZM529.673 110.8L530.493 111.372L530.498 111.365L529.673 110.8ZM521.681 116.92L522.072 117.84L522.078 117.838L521.681 116.92ZM508.865 118.152C504.762 118.152 500.757 117.704 496.848 116.809L496.402 118.759C500.46 119.688 504.615 120.152 508.865 120.152V118.152ZM496.862 116.812C492.995 115.869 489.862 114.631 487.433 113.119L486.376 114.817C489.036 116.473 492.382 117.779 496.388 118.756L496.862 116.812ZM487.819 114.372L493.291 101.988L491.462 101.18L485.99 113.564L487.819 114.372ZM491.875 102.449C494.353 103.886 497.117 105.044 500.162 105.928L500.72 104.008C497.813 103.164 495.201 102.066 492.878 100.719L491.875 102.449ZM500.176 105.932C503.228 106.769 506.173 107.192 509.009 107.192V105.192C506.373 105.192 503.606 104.799 500.705 104.004L500.176 105.932ZM509.009 107.192C511.376 107.192 513.234 106.981 514.443 106.463L513.655 104.625C512.848 104.971 511.345 105.192 509.009 105.192V107.192ZM514.479 106.447C515.09 106.156 515.617 105.767 515.993 105.249C516.376 104.719 516.561 104.109 516.561 103.456H514.561C514.561 103.715 514.493 103.909 514.373 104.075C514.244 104.253 514.016 104.452 513.619 104.641L514.479 106.447ZM516.561 103.456C516.561 102.695 516.311 102.003 515.819 101.423C515.343 100.862 514.679 100.451 513.91 100.149L513.179 102.011C513.754 102.237 514.099 102.486 514.294 102.717C514.474 102.929 514.561 103.161 514.561 103.456H516.561ZM513.922 100.154C512.535 99.5886 510.297 98.9979 507.267 98.3726L506.863 100.331C509.881 100.954 511.963 101.515 513.167 102.006L513.922 100.154ZM507.27 98.3733C503.408 97.5627 500.214 96.7093 497.677 95.8167L497.013 97.7033C499.66 98.6347 502.946 99.5093 506.859 100.331L507.27 98.3733ZM497.692 95.8223C495.255 94.9197 493.133 93.4768 491.317 91.4793L489.837 92.8247C491.861 95.0512 494.25 96.6803 496.997 97.6977L497.692 95.8223ZM491.324 91.4876C489.606 89.5549 488.697 86.9095 488.697 83.44H486.697C486.697 87.2665 487.707 90.4291 489.829 92.8164L491.324 91.4876ZM488.697 83.44C488.697 80.472 489.525 77.7893 491.186 75.3652L489.536 74.2348C487.645 76.9947 486.697 80.072 486.697 83.44H488.697ZM491.186 75.3652C492.833 72.9611 495.306 71.0298 498.672 69.6004L497.89 67.7596C494.248 69.3062 491.441 71.4549 489.536 74.2348L491.186 75.3652ZM498.667 69.6023C502.065 68.1788 506.222 67.448 511.169 67.448V65.448C506.035 65.448 501.6 66.2052 497.894 67.7577L498.667 69.6023ZM511.169 67.448C514.55 67.448 517.858 67.8236 521.095 68.5741L521.547 66.6258C518.159 65.8404 514.7 65.448 511.169 65.448V67.448ZM521.111 68.5778C524.389 69.2802 527.242 70.3281 529.684 71.7103L530.669 69.9697C528.023 68.4719 524.973 67.3598 521.53 66.6222L521.111 68.5778ZM529.253 70.4565L524.141 82.7685L525.988 83.5355L531.1 71.2235L529.253 70.4565ZM525.515 82.2593C520.466 79.7103 515.632 78.408 511.025 78.408V80.408C515.249 80.408 519.775 81.6017 524.614 84.0447L525.515 82.2593ZM511.025 78.408C508.792 78.408 506.972 78.6727 505.675 79.2997C505.014 79.6198 504.453 80.0512 504.059 80.6224C503.66 81.2016 503.473 81.866 503.473 82.576H505.473C505.473 82.23 505.559 81.9704 505.706 81.7576C505.858 81.5368 506.116 81.3082 506.546 81.1003C507.433 80.6713 508.889 80.408 511.025 80.408V78.408ZM503.473 82.576C503.473 83.3152 503.718 83.9878 504.194 84.5529C504.656 85.0995 505.297 85.5037 506.039 85.8061L506.794 83.9539C506.24 83.7283 505.91 83.4845 505.723 83.2631C505.552 83.0601 505.473 82.8448 505.473 82.576H503.473ZM506.069 85.8177C507.448 86.3283 509.653 86.8686 512.635 87.4458L513.015 85.4822C510.045 84.9073 507.978 84.3917 506.764 83.9423L506.069 85.8177ZM512.64 87.4469C516.446 88.1604 519.63 88.988 522.203 89.9238L522.886 88.0442C520.18 87.06 516.884 86.2076 513.009 85.4811L512.64 87.4469ZM522.218 89.9292C524.696 90.7852 526.835 92.2019 528.645 94.1927L530.125 92.8473C528.094 90.6141 525.673 89.0068 522.871 88.0388L522.218 89.9292ZM528.653 94.2017C530.407 96.0834 531.337 98.6955 531.337 102.16H533.337C533.337 98.3285 532.299 95.1806 530.116 92.8383L528.653 94.2017ZM531.337 102.16C531.337 105.128 530.509 107.811 528.848 110.235L530.498 111.365C532.389 108.605 533.337 105.528 533.337 102.16H531.337ZM528.853 110.228C527.206 112.586 524.707 114.522 521.284 116.002L522.078 117.838C525.758 116.246 528.587 114.102 530.493 111.372L528.853 110.228ZM521.29 116C517.943 117.421 513.812 118.152 508.865 118.152V120.152C513.998 120.152 518.411 119.395 522.072 117.84L521.29 116ZM546.033 116.128L545.591 117.025L545.596 117.027L546.033 116.128ZM537.753 108.856L536.907 109.39L536.913 109.399L537.753 108.856ZM537.753 87.76L536.913 87.2173L536.911 87.2206L537.753 87.76ZM546.033 80.488L545.596 79.5887L545.591 79.5911L546.033 80.488ZM570.369 80.992L569.851 81.8474L569.851 81.8474L570.369 80.992ZM577.425 89.56L577.866 90.4575L578.666 90.0646L578.367 89.2252L577.425 89.56ZM564.825 95.752L563.911 96.1581L564.333 97.1079L565.266 96.6495L564.825 95.752ZM553.161 92.584L552.441 91.8899L552.435 91.8966L552.428 91.9035L553.161 92.584ZM553.161 104.032L552.428 104.712L552.435 104.719L552.441 104.726L553.161 104.032ZM564.825 100.864L565.266 99.9665L564.333 99.5081L563.911 100.458L564.825 100.864ZM577.425 107.056L578.367 107.391L578.666 106.551L577.866 106.159L577.425 107.056ZM570.369 115.624L570.887 116.479L570.887 116.479L570.369 115.624ZM558.057 117.72C553.725 117.72 549.869 116.882 546.471 115.229L545.596 117.027C549.301 118.83 553.461 119.72 558.057 119.72V117.72ZM546.475 115.231C543.125 113.579 540.506 111.273 538.593 108.313L536.913 109.399C539.032 112.679 541.933 115.221 545.591 117.025L546.475 115.231ZM538.599 108.322C536.738 105.373 535.801 102.032 535.801 98.272H533.801C533.801 102.384 534.832 106.099 536.907 109.39L538.599 108.322ZM535.801 98.272C535.801 94.5115 536.738 91.1977 538.595 88.2994L536.911 87.2206C534.832 90.4663 533.801 94.1605 533.801 98.272H535.801ZM538.593 88.3027C540.506 85.3425 543.125 83.0372 546.475 81.3849L545.591 79.5911C541.933 81.3948 539.032 83.9375 536.913 87.2173L538.593 88.3027ZM546.471 81.3872C549.869 79.7337 553.725 78.896 558.057 78.896V76.896C553.461 76.896 549.301 77.7863 545.596 79.5888L546.471 81.3872ZM558.057 78.896C562.712 78.896 566.629 79.8957 569.851 81.8474L570.887 80.1366C567.294 77.9603 563.002 76.896 558.057 76.896V78.896ZM569.851 81.8474C573.068 83.7957 575.266 86.4708 576.483 89.8948L578.367 89.2252C576.992 85.3532 574.486 82.3163 570.887 80.1366L569.851 81.8474ZM576.984 88.6625L564.384 94.8545L565.266 96.6495L577.866 90.4575L576.984 88.6625ZM565.739 95.3459C564.924 93.5115 563.878 92.0607 562.567 91.067C561.243 90.0635 559.702 89.568 557.985 89.568V91.568C559.292 91.568 560.403 91.9365 561.359 92.661C562.328 93.3953 563.191 94.5365 563.911 96.1581L565.739 95.3459ZM557.985 89.568C555.802 89.568 553.932 90.3443 552.441 91.8899L553.881 93.2781C554.983 92.1357 556.328 91.568 557.985 91.568V89.568ZM552.428 91.9035C550.958 93.4873 550.289 95.6579 550.289 98.272H552.289C552.289 95.9901 552.868 94.3687 553.894 93.2645L552.428 91.9035ZM550.289 98.272C550.289 100.928 550.955 103.125 552.428 104.712L553.894 103.352C552.872 102.251 552.289 100.608 552.289 98.272H550.289ZM552.441 104.726C553.932 106.272 555.802 107.048 557.985 107.048V105.048C556.328 105.048 554.983 104.48 553.881 103.338L552.441 104.726ZM557.985 107.048C559.702 107.048 561.243 106.553 562.567 105.549C563.878 104.555 564.924 103.104 565.739 101.27L563.911 100.458C563.191 102.08 562.328 103.221 561.359 103.955C560.403 104.679 559.292 105.048 557.985 105.048V107.048ZM564.384 101.761L576.984 107.953L577.866 106.159L565.266 99.9665L564.384 101.761ZM576.483 106.721C575.266 110.145 573.068 112.82 569.851 114.769L570.887 116.479C574.486 114.3 576.992 111.263 578.367 107.391L576.483 106.721ZM569.851 114.769C566.629 116.72 562.712 117.72 558.057 117.72V119.72C563.002 119.72 567.294 118.656 570.887 116.479L569.851 114.769ZM614.666 82.576L614.016 83.336L614.022 83.3409L614.666 82.576ZM620.138 118V119H621.138V118H620.138ZM605.018 118H604.018V119H605.018V118ZM605.018 112.816H606.018L604.115 112.386L605.018 112.816ZM585.866 117.136L585.411 118.026L585.423 118.032L585.434 118.038L585.866 117.136ZM580.898 112.744L580.037 113.252L580.044 113.265L580.052 113.278L580.898 112.744ZM583.706 97.624L583.145 96.7961L583.145 96.7961L583.706 97.624ZM603.794 94.6V95.6H604.98L604.779 94.4306L603.794 94.6ZM590.978 90.856L591.256 91.8166L591.268 91.8132L591.279 91.8096L590.978 90.856ZM586.298 93.088L585.398 93.5231L585.923 94.6103L586.893 93.8916L586.298 93.088ZM581.114 82.36L580.589 81.509L579.821 81.9827L580.214 82.7951L581.114 82.36ZM589.25 79.12L589.486 80.0919L589.496 80.0893L589.25 79.12ZM601.85 107.992L601.285 107.167L601.285 107.167L601.85 107.992ZM603.866 105.184L604.811 105.511L604.866 105.352V105.184H603.866ZM603.866 102.448H604.866V101.448H603.866V102.448ZM595.874 108.064L595.193 108.797L595.22 108.822L595.249 108.845L595.874 108.064ZM598.826 78.896C605.603 78.896 610.614 80.4267 614.016 83.336L615.316 81.816C611.421 78.4853 605.873 76.896 598.826 76.896V78.896ZM614.022 83.3409C617.372 86.1625 619.138 90.5861 619.138 96.832H621.138C621.138 90.2139 619.255 85.1335 615.31 81.8111L614.022 83.3409ZM619.138 96.832V118H621.138V96.832H619.138ZM620.138 117H605.018V119H620.138V117ZM606.018 118V112.816H604.018V118H606.018ZM604.115 112.386C602.457 115.871 599.168 117.72 593.858 117.72V119.72C599.683 119.72 603.834 117.633 605.921 113.246L604.115 112.386ZM593.858 117.72C590.848 117.72 588.339 117.21 586.297 116.234L585.434 118.038C587.809 119.174 590.628 119.72 593.858 119.72V117.72ZM586.321 116.246C584.3 115.213 582.788 113.864 581.743 112.21L580.052 113.278C581.312 115.272 583.111 116.851 585.411 118.026L586.321 116.246ZM581.759 112.236C580.752 110.527 580.242 108.616 580.242 106.48H578.242C578.242 108.952 578.836 111.217 580.037 113.252L581.759 112.236ZM580.242 106.48C580.242 102.892 581.591 100.265 584.267 98.4519L583.145 96.7961C579.869 99.0154 578.242 102.292 578.242 106.48H580.242ZM584.267 98.4519C586.999 96.6012 591.272 95.6 597.242 95.6V93.6C591.116 93.6 586.365 94.6148 583.145 96.7961L584.267 98.4519ZM597.242 95.6H603.794V93.6H597.242V95.6ZM604.779 94.4306C604.471 92.6355 603.569 91.2251 602.072 90.2946C600.615 89.3897 598.683 88.992 596.378 88.992V90.992C598.489 90.992 600 91.3623 601.016 91.9934C601.991 92.5989 602.589 93.4925 602.808 94.7694L604.779 94.4306ZM596.378 88.992C594.492 88.992 592.591 89.298 590.677 89.9024L591.279 91.8096C593.013 91.262 594.712 90.992 596.378 90.992V88.992ZM590.7 89.8954C588.781 90.4508 587.11 91.2423 585.703 92.2844L586.893 93.8916C588.078 93.0137 589.526 92.3172 591.256 91.8166L590.7 89.8954ZM587.198 92.6529L582.014 81.9249L580.214 82.7951L585.398 93.5231L587.198 92.6529ZM581.639 83.211C583.788 81.8853 586.397 80.8405 589.486 80.0918L589.014 78.1481C585.767 78.9355 582.952 80.0507 580.589 81.509L581.639 83.211ZM589.496 80.0893C592.635 79.2927 595.745 78.896 598.826 78.896V76.896C595.571 76.896 592.297 77.3153 589.004 78.1507L589.496 80.0893ZM598.754 109.928C600.098 109.928 601.329 109.56 602.415 108.817L601.285 107.167C600.547 107.672 599.713 107.928 598.754 107.928V109.928ZM602.415 108.817C603.536 108.05 604.323 106.921 604.811 105.511L602.921 104.857C602.545 105.943 601.988 106.686 601.285 107.167L602.415 108.817ZM604.866 105.184V102.448H602.866V105.184H604.866ZM603.866 101.448H599.834V103.448H603.866V101.448ZM599.834 101.448C598.098 101.448 596.622 101.732 595.553 102.444C594.413 103.204 593.866 104.365 593.866 105.76H595.866C595.866 104.947 596.147 104.452 596.663 104.108C597.25 103.716 598.257 103.448 599.834 103.448V101.448ZM593.866 105.76C593.866 106.952 594.319 107.985 595.193 108.797L596.554 107.331C596.085 106.895 595.866 106.392 595.866 105.76H593.866ZM595.249 108.845C596.194 109.601 597.396 109.928 598.754 109.928V107.928C597.712 107.928 596.994 107.679 596.499 107.283L595.249 108.845ZM666.194 82.288L665.487 82.9951L665.493 83.0008L666.194 82.288ZM670.658 118V119H671.658V118H670.658ZM654.386 118H653.386V119H654.386V118ZM645.098 93.52L644.351 92.8556L644.349 92.8574L645.098 93.52ZM643.442 118V119H644.442V118H643.442ZM627.17 118H626.17V119H627.17V118ZM627.17 78.616V77.616H626.17V78.616H627.17ZM642.65 78.616H643.65V77.616H642.65V78.616ZM642.65 82.504H641.65V84.9182L643.357 83.2111L642.65 82.504ZM647.978 79.048L648.334 79.9825L648.334 79.9825L647.978 79.048ZM654.53 78.896C659.162 78.896 662.779 80.2866 665.487 82.9951L666.901 81.5809C663.754 78.4334 659.595 76.896 654.53 76.896V78.896ZM665.493 83.0008C668.21 85.6744 669.658 89.7875 669.658 95.536H671.658C671.658 89.4765 670.13 84.7576 666.896 81.5752L665.493 83.0008ZM669.658 95.536V118H671.658V95.536H669.658ZM670.658 117H654.386V119H670.658V117ZM655.386 118V98.344H653.386V118H655.386ZM655.386 98.344C655.386 95.9995 654.974 94.0616 653.995 92.6876C652.971 91.2512 651.434 90.576 649.562 90.576V92.576C650.907 92.576 651.782 93.0288 652.366 93.8484C652.995 94.7304 653.386 96.1765 653.386 98.344H655.386ZM649.562 90.576C647.469 90.576 645.704 91.3339 644.351 92.8556L645.846 94.1844C646.797 93.1141 648.007 92.576 649.562 92.576V90.576ZM644.349 92.8574C643.007 94.3743 642.442 96.6625 642.442 99.496H644.442C644.442 96.8575 644.981 95.1617 645.847 94.1826L644.349 92.8574ZM642.442 99.496V118H644.442V99.496H642.442ZM643.442 117H627.17V119H643.442V117ZM628.17 118V78.616H626.17V118H628.17ZM627.17 79.616H642.65V77.616H627.17V79.616ZM641.65 78.616V82.504H643.65V78.616H641.65ZM643.357 83.2111C644.794 81.7741 646.451 80.6999 648.334 79.9825L647.622 78.1135C645.474 78.9321 643.578 80.1619 641.943 81.7969L643.357 83.2111ZM648.334 79.9825C650.227 79.2615 652.289 78.896 654.53 78.896V76.896C652.068 76.896 649.762 77.2984 647.622 78.1135L648.334 79.9825Z" fill="black"/>
</svg>
