<svg width="736" height="184" viewBox="0 0 736 184" fill="none" xmlns="http://www.w3.org/2000/svg">
<rect width="736" height="184" fill="white"/>
<path d="M56.7336 101.042C92.6135 32.5157 113.275 90.3916 138.824 78.34C147.062 74.4539 165.591 66.0036 179.5 59.0013C176.509 50.0119 109 55 109 55C62.8752 61.0199 81.0257 30.9742 49.6135 59.0013C35.5674 71.5337 40.3636 93.2284 52.1067 111.156C53.1636 108.299 54.6887 104.947 56.7336 101.042Z" fill="#87EB00"/>
<path d="M114.5 142.5C127 134 134.377 112.926 147.679 106.299C133.473 91.3974 86.1304 119.638 63.0741 124.772C77.1804 139.107 102 151 114.5 142.5Z" fill="#87EB00"/>
<path d="M151.529 115.196C158.091 162.842 178.194 132.713 211.142 73.9957C233.466 34.212 208.727 44.2873 179.5 59.0013C183.38 70.6629 198.741 76.6647 182 92.5C165.259 108.335 154.982 102.661 147.704 106.287L147.679 106.299C149.654 108.371 150.989 111.277 151.529 115.196Z" fill="#87EB00"/>
<path d="M151.529 115.196C158.091 162.842 178.194 132.713 211.142 73.9957C233.466 34.212 208.727 44.2873 179.5 59.0013C183.38 70.6629 198.741 76.6647 182 92.5C165.259 108.335 154.982 102.661 147.704 106.287L147.679 106.299C149.654 108.371 150.989 111.277 151.529 115.196Z" fill="#87EB00"/>
<path d="M52.1067 111.156C55.3228 116.066 59.0601 120.693 63.0741 124.772C35.5 151 47.1121 124.656 52.1067 111.156Z" fill="#87EB00"/>
<path d="M179.5 59.0013C165.591 66.0036 147.062 74.4539 138.824 78.34C113.275 90.3916 92.6135 32.5157 56.7336 101.042C54.6887 104.947 53.1636 108.299 52.1067 111.156M179.5 59.0013C176.509 50.0119 109 55 109 55C62.8752 61.0199 81.0257 30.9742 49.6135 59.0013C35.5674 71.5337 40.3636 93.2284 52.1067 111.156M179.5 59.0013C183.38 70.6629 198.741 76.6647 182 92.5C165.259 108.335 154.982 102.661 147.704 106.287M179.5 59.0013C208.727 44.2873 233.466 34.212 211.142 73.9957C178.194 132.713 158.091 162.842 151.529 115.196C150.989 111.277 149.654 108.371 147.679 106.299M52.1067 111.156C55.3228 116.066 59.0601 120.693 63.0741 124.772M52.1067 111.156C47.1121 124.656 35.5 151 63.0741 124.772M147.679 106.299C134.377 112.926 127 134 114.5 142.5C102 151 77.1804 139.107 63.0741 124.772M147.679 106.299C133.473 91.3974 86.1304 119.638 63.0741 124.772M147.679 106.299L147.704 106.287M147.679 106.299C147.688 106.295 147.696 106.291 147.704 106.287" stroke="black" stroke-width="2"/>
<path d="M275.704 105.328H271.096V118H254.104V67.6H278.368C283.024 67.6 287.08 68.368 290.536 69.904C293.992 71.44 296.656 73.648 298.528 76.528C300.4 79.408 301.336 82.768 301.336 86.608C301.336 90.208 300.52 93.352 298.888 96.04C297.256 98.728 294.904 100.864 291.832 102.448L302.416 118H284.272L275.704 105.328ZM284.2 86.608C284.2 84.736 283.624 83.296 282.472 82.288C281.32 81.232 279.592 80.704 277.288 80.704H271.096V92.512H277.288C279.592 92.512 281.32 92.008 282.472 91C283.624 89.944 284.2 88.48 284.2 86.608ZM326.544 119.152C322.368 119.152 318.288 118.696 314.304 117.784C310.368 116.824 307.128 115.552 304.584 113.968L310.056 101.584C312.456 102.976 315.144 104.104 318.12 104.968C321.096 105.784 323.952 106.192 326.688 106.192C329.04 106.192 330.72 105.976 331.728 105.544C332.736 105.064 333.24 104.368 333.24 103.456C333.24 102.4 332.568 101.608 331.224 101.08C329.928 100.552 327.768 99.976 324.744 99.352C320.856 98.536 317.616 97.672 315.024 96.76C312.432 95.8 310.176 94.264 308.256 92.152C306.336 89.992 305.376 87.088 305.376 83.44C305.376 80.272 306.264 77.392 308.04 74.8C309.816 72.208 312.456 70.168 315.96 68.68C319.512 67.192 323.808 66.448 328.848 66.448C332.304 66.448 335.688 66.832 339 67.6C342.36 68.32 345.312 69.4 347.856 70.84L342.744 83.152C337.8 80.656 333.12 79.408 328.704 79.408C324.336 79.408 322.152 80.464 322.152 82.576C322.152 83.584 322.8 84.352 324.096 84.88C325.392 85.36 327.528 85.888 330.504 86.464C334.344 87.184 337.584 88.024 340.224 88.984C342.864 89.896 345.144 91.408 347.064 93.52C349.032 95.632 350.016 98.512 350.016 102.16C350.016 105.328 349.128 108.208 347.352 110.8C345.576 113.344 342.912 115.384 339.36 116.92C335.856 118.408 331.584 119.152 326.544 119.152ZM373.865 119.152C369.689 119.152 365.609 118.696 361.625 117.784C357.689 116.824 354.449 115.552 351.905 113.968L357.377 101.584C359.777 102.976 362.465 104.104 365.441 104.968C368.417 105.784 371.273 106.192 374.009 106.192C376.361 106.192 378.041 105.976 379.049 105.544C380.057 105.064 380.561 104.368 380.561 103.456C380.561 102.4 379.889 101.608 378.545 101.08C377.249 100.552 375.089 99.976 372.065 99.352C368.177 98.536 364.937 97.672 362.345 96.76C359.753 95.8 357.497 94.264 355.577 92.152C353.657 89.992 352.697 87.088 352.697 83.44C352.697 80.272 353.585 77.392 355.361 74.8C357.137 72.208 359.777 70.168 363.281 68.68C366.833 67.192 371.129 66.448 376.169 66.448C379.625 66.448 383.009 66.832 386.321 67.6C389.681 68.32 392.633 69.4 395.177 70.84L390.065 83.152C385.121 80.656 380.441 79.408 376.025 79.408C371.657 79.408 369.473 80.464 369.473 82.576C369.473 83.584 370.121 84.352 371.417 84.88C372.713 85.36 374.849 85.888 377.825 86.464C381.665 87.184 384.905 88.024 387.545 88.984C390.185 89.896 392.465 91.408 394.385 93.52C396.353 95.632 397.337 98.512 397.337 102.16C397.337 105.328 396.449 108.208 394.673 110.8C392.897 113.344 390.233 115.384 386.681 116.92C383.177 118.408 378.905 119.152 373.865 119.152ZM428.673 87.544C432.561 88.504 435.537 90.256 437.601 92.8C439.713 95.296 440.769 98.32 440.769 101.872C440.769 104.896 439.929 107.728 438.249 110.368C436.617 112.96 434.073 115.072 430.617 116.704C427.161 118.336 422.865 119.152 417.729 119.152C414.177 119.152 410.625 118.768 407.073 118C403.569 117.232 400.497 116.104 397.857 114.616L403.617 102.088C405.681 103.288 407.889 104.2 410.241 104.824C412.641 105.448 414.945 105.76 417.153 105.76C419.121 105.76 420.705 105.424 421.905 104.752C423.105 104.08 423.705 103.12 423.705 101.872C423.705 99.568 421.713 98.416 417.729 98.416H411.033V87.976L418.449 80.416H400.449V67.6H438.033V78.04L428.673 87.544ZM453.46 96.472C450.724 96.472 448.444 95.608 446.62 93.88C444.844 92.104 443.956 89.848 443.956 87.112C443.956 84.376 444.844 82.168 446.62 80.488C448.444 78.76 450.724 77.896 453.46 77.896C456.196 77.896 458.452 78.76 460.228 80.488C462.052 82.168 462.964 84.376 462.964 87.112C462.964 89.848 462.052 92.104 460.228 93.88C458.452 95.608 456.196 96.472 453.46 96.472ZM453.46 118.72C450.724 118.72 448.444 117.856 446.62 116.128C444.844 114.352 443.956 112.096 443.956 109.36C443.956 106.624 444.844 104.416 446.62 102.736C448.444 101.008 450.724 100.144 453.46 100.144C456.196 100.144 458.452 101.008 460.228 102.736C462.052 104.416 462.964 106.624 462.964 109.36C462.964 112.096 462.052 114.352 460.228 116.128C458.452 117.856 456.196 118.72 453.46 118.72ZM489.552 57.376H503.952L480.192 125.2H465.792L489.552 57.376ZM515.497 57.376H529.897L506.137 125.2H491.737L515.497 57.376ZM546.68 119.024C542.968 119.024 539.341 118.619 535.8 117.808C532.301 116.955 529.421 115.824 527.16 114.416L532.024 103.408C534.157 104.645 536.547 105.648 539.192 106.416C541.837 107.141 544.376 107.504 546.808 107.504C548.899 107.504 550.392 107.312 551.288 106.928C552.184 106.501 552.632 105.883 552.632 105.072C552.632 104.133 552.035 103.429 550.84 102.96C549.688 102.491 547.768 101.979 545.08 101.424C541.624 100.699 538.744 99.9307 536.44 99.12C534.136 98.2667 532.131 96.9013 530.424 95.024C528.717 93.104 527.864 90.5227 527.864 87.28C527.864 84.464 528.653 81.904 530.232 79.6C531.811 77.296 534.157 75.4827 537.272 74.16C540.429 72.8373 544.248 72.176 548.728 72.176C551.8 72.176 554.808 72.5173 557.752 73.2C560.739 73.84 563.363 74.8 565.624 76.08L561.08 87.024C556.685 84.8053 552.525 83.696 548.6 83.696C544.717 83.696 542.776 84.6347 542.776 86.512C542.776 87.408 543.352 88.0907 544.504 88.56C545.656 88.9867 547.555 89.456 550.2 89.968C553.613 90.608 556.493 91.3547 558.84 92.208C561.187 93.0187 563.213 94.3627 564.92 96.24C566.669 98.1173 567.544 100.677 567.544 103.92C567.544 106.736 566.755 109.296 565.176 111.6C563.597 113.861 561.229 115.675 558.072 117.04C554.957 118.363 551.16 119.024 546.68 119.024ZM590.407 118.64C586.439 118.64 582.876 117.872 579.719 116.336C576.604 114.8 574.151 112.645 572.359 109.872C570.609 107.099 569.735 103.963 569.735 100.464C569.735 96.9653 570.609 93.8507 572.359 91.12C574.151 88.3467 576.604 86.192 579.719 84.656C582.876 83.12 586.439 82.352 590.407 82.352C594.673 82.352 598.321 83.2693 601.351 85.104C604.38 86.9387 606.471 89.4773 607.623 92.72L596.423 98.224C595.057 95.152 593.031 93.616 590.343 93.616C588.636 93.616 587.207 94.2133 586.055 95.408C584.945 96.6027 584.391 98.288 584.391 100.464C584.391 102.683 584.945 104.389 586.055 105.584C587.207 106.779 588.636 107.376 590.343 107.376C593.031 107.376 595.057 105.84 596.423 102.768L607.623 108.272C606.471 111.515 604.38 114.053 601.351 115.888C598.321 117.723 594.673 118.64 590.407 118.64ZM626.646 82.352C632.79 82.352 637.483 83.7387 640.726 86.512C643.968 89.2427 645.59 93.4667 645.59 99.184V118H632.15V113.392C630.486 116.891 627.179 118.64 622.23 118.64C619.456 118.64 617.088 118.171 615.126 117.232C613.206 116.251 611.734 114.949 610.71 113.328C609.728 111.664 609.238 109.808 609.238 107.76C609.238 104.304 610.56 101.68 613.206 99.888C615.851 98.096 619.862 97.2 625.238 97.2H631.062C630.592 94.4693 628.395 93.104 624.47 93.104C622.891 93.104 621.291 93.36 619.67 93.872C618.048 94.3413 616.662 95.0027 615.51 95.856L610.902 86.32C612.907 85.0827 615.318 84.1227 618.134 83.44C620.992 82.7147 623.83 82.352 626.646 82.352ZM626.582 109.936C627.606 109.936 628.523 109.659 629.334 109.104C630.144 108.549 630.742 107.717 631.126 106.608V104.176H627.542C624.598 104.176 623.126 105.157 623.126 107.12C623.126 107.931 623.424 108.613 624.022 109.168C624.662 109.68 625.515 109.936 626.582 109.936ZM676.161 82.352C680.47 82.352 683.926 83.6533 686.529 86.256C689.174 88.8587 690.497 92.784 690.497 98.032V118H676.033V100.528C676.033 96.5173 674.603 94.512 671.745 94.512C670.123 94.512 668.801 95.088 667.777 96.24C666.795 97.3493 666.305 99.12 666.305 101.552V118H651.841V82.992H665.601V86.448C666.966 85.0827 668.545 84.0587 670.337 83.376C672.129 82.6933 674.07 82.352 676.161 82.352Z" fill="#87EB00"/>
<path d="M275.704 105.328L276.532 104.768L276.235 104.328H275.704V105.328ZM271.096 105.328V104.328H270.096V105.328H271.096ZM271.096 118V119H272.096V118H271.096ZM254.104 118H253.104V119H254.104V118ZM254.104 67.6V66.6H253.104V67.6H254.104ZM290.536 69.904L290.13 70.8178L290.13 70.8178L290.536 69.904ZM298.528 76.528L297.69 77.073L297.69 77.073L298.528 76.528ZM298.888 96.04L298.033 95.521L298.033 95.521L298.888 96.04ZM291.832 102.448L291.374 101.559L290.37 102.077L291.005 103.011L291.832 102.448ZM302.416 118V119H304.306L303.243 117.437L302.416 118ZM284.272 118L283.444 118.56L283.741 119H284.272V118ZM282.472 82.288L281.796 83.0252L281.805 83.033L281.813 83.0406L282.472 82.288ZM271.096 80.704V79.704H270.096V80.704H271.096ZM271.096 92.512H270.096V93.512H271.096V92.512ZM282.472 91L283.131 91.7526L283.139 91.745L283.148 91.7372L282.472 91ZM275.704 104.328H271.096V106.328H275.704V104.328ZM270.096 105.328V118H272.096V105.328H270.096ZM271.096 117H254.104V119H271.096V117ZM255.104 118V67.6H253.104V118H255.104ZM254.104 68.6H278.368V66.6H254.104V68.6ZM278.368 68.6C282.916 68.6 286.828 69.3502 290.13 70.8178L290.942 68.9902C287.332 67.3858 283.132 66.6 278.368 66.6V68.6ZM290.13 70.8178C293.428 72.2835 295.934 74.3714 297.69 77.073L299.366 75.983C297.379 72.9246 294.556 70.5965 290.942 68.9902L290.13 70.8178ZM297.69 77.073C299.444 79.7721 300.336 82.9379 300.336 86.608H302.336C302.336 82.5981 301.356 79.0439 299.366 75.983L297.69 77.073ZM300.336 86.608C300.336 90.052 299.557 93.0111 298.033 95.521L299.743 96.559C301.483 93.6929 302.336 90.364 302.336 86.608H300.336ZM298.033 95.521C296.506 98.0362 294.299 100.051 291.374 101.559L292.29 103.337C295.509 101.677 298.006 99.4198 299.743 96.559L298.033 95.521ZM291.005 103.011L301.589 118.563L303.243 117.437L292.659 101.885L291.005 103.011ZM302.416 117H284.272V119H302.416V117ZM285.1 117.44L276.532 104.768L274.876 105.888L283.444 118.56L285.1 117.44ZM285.2 86.608C285.2 84.5175 284.547 82.7749 283.131 81.5354L281.813 83.0406C282.701 83.8171 283.2 84.9545 283.2 86.608H285.2ZM283.148 81.5508C281.74 80.2608 279.726 79.704 277.288 79.704V81.704C279.458 81.704 280.9 82.2032 281.796 83.0252L283.148 81.5508ZM277.288 79.704H271.096V81.704H277.288V79.704ZM270.096 80.704V92.512H272.096V80.704H270.096ZM271.096 93.512H277.288V91.512H271.096V93.512ZM277.288 93.512C279.716 93.512 281.723 92.9838 283.131 91.7526L281.813 90.2474C280.917 91.0322 279.468 91.512 277.288 91.512V93.512ZM283.148 91.7372C284.547 90.4545 285.2 88.7001 285.2 86.608H283.2C283.2 88.2599 282.701 89.4335 281.796 90.2628L283.148 91.7372ZM314.304 117.784L314.067 118.756L314.074 118.757L314.081 118.759L314.304 117.784ZM304.584 113.968L303.67 113.564L303.319 114.358L304.056 114.817L304.584 113.968ZM310.056 101.584L310.558 100.719L309.593 100.159L309.142 101.18L310.056 101.584ZM318.12 104.968L317.842 105.928L317.849 105.93L317.856 105.932L318.12 104.968ZM331.728 105.544L332.122 106.463L332.141 106.455L332.158 106.447L331.728 105.544ZM331.224 101.08L330.847 102.006L330.859 102.011L331.224 101.08ZM324.744 99.352L324.539 100.331L324.542 100.331L324.744 99.352ZM315.024 96.76L314.677 97.6977L314.685 97.7006L314.693 97.7033L315.024 96.76ZM308.256 92.152L307.509 92.8164L307.516 92.8247L308.256 92.152ZM308.04 74.8L308.865 75.3652L308.865 75.3652L308.04 74.8ZM315.96 68.68L315.574 67.7576L315.57 67.7596L315.96 68.68ZM339 67.6L338.775 68.5741L338.783 68.576L338.791 68.5778L339 67.6ZM347.856 70.84L348.78 71.2235L349.119 70.4058L348.349 69.9697L347.856 70.84ZM342.744 83.152L342.294 84.0447L343.255 84.53L343.668 83.5355L342.744 83.152ZM324.096 84.88L323.719 85.8061L323.734 85.8122L323.749 85.8177L324.096 84.88ZM330.504 86.464L330.314 87.4458L330.32 87.4469L330.504 86.464ZM340.224 88.984L339.883 89.9238L339.89 89.9266L339.898 89.9292L340.224 88.984ZM347.064 93.52L346.324 94.1927L346.333 94.2017L347.064 93.52ZM347.352 110.8L348.172 111.372L348.177 111.365L347.352 110.8ZM339.36 116.92L339.751 117.84L339.757 117.838L339.36 116.92ZM326.544 118.152C322.442 118.152 318.437 117.704 314.528 116.809L314.081 118.759C318.14 119.688 322.295 120.152 326.544 120.152V118.152ZM314.541 116.812C310.675 115.869 307.542 114.631 305.113 113.119L304.056 114.817C306.715 116.473 310.062 117.779 314.067 118.756L314.541 116.812ZM305.499 114.372L310.971 101.988L309.142 101.18L303.67 113.564L305.499 114.372ZM309.555 102.449C312.033 103.886 314.797 105.044 317.842 105.928L318.399 104.008C315.492 103.164 312.88 102.066 310.558 100.719L309.555 102.449ZM317.856 105.932C320.907 106.769 323.853 107.192 326.688 107.192V105.192C324.052 105.192 321.286 104.799 318.385 104.004L317.856 105.932ZM326.688 107.192C329.056 107.192 330.914 106.981 332.122 106.463L331.335 104.625C330.527 104.971 329.025 105.192 326.688 105.192V107.192ZM332.158 106.447C332.77 106.156 333.297 105.767 333.672 105.249C334.056 104.719 334.24 104.109 334.24 103.456H332.24C332.24 103.715 332.173 103.909 332.052 104.075C331.924 104.253 331.695 104.452 331.299 104.641L332.158 106.447ZM334.24 103.456C334.24 102.695 333.991 102.003 333.499 101.423C333.023 100.862 332.359 100.451 331.59 100.149L330.859 102.011C331.434 102.237 331.778 102.486 331.974 102.717C332.154 102.929 332.24 103.161 332.24 103.456H334.24ZM331.602 100.154C330.214 99.5886 327.977 98.9979 324.947 98.3726L324.542 100.331C327.56 100.954 329.643 101.515 330.847 102.006L331.602 100.154ZM324.95 98.3733C321.088 97.5627 317.893 96.7093 315.356 95.8167L314.693 97.7033C317.34 98.6347 320.625 99.5093 324.539 100.331L324.95 98.3733ZM315.372 95.8223C312.935 94.9197 310.812 93.4768 308.996 91.4793L307.516 92.8247C309.541 95.0512 311.93 96.6803 314.677 97.6977L315.372 95.8223ZM309.004 91.4876C307.286 89.5549 306.376 86.9095 306.376 83.44H304.376C304.376 87.2665 305.387 90.4291 307.509 92.8164L309.004 91.4876ZM306.376 83.44C306.376 80.472 307.204 77.7893 308.865 75.3652L307.216 74.2348C305.324 76.9947 304.376 80.072 304.376 83.44H306.376ZM308.865 75.3652C310.513 72.9611 312.985 71.0298 316.351 69.6004L315.57 67.7596C311.927 69.3062 309.12 71.4549 307.216 74.2348L308.865 75.3652ZM316.347 69.6023C319.745 68.1788 323.902 67.448 328.848 67.448V65.448C323.715 65.448 319.28 66.2052 315.574 67.7577L316.347 69.6023ZM328.848 67.448C332.23 67.448 335.538 67.8236 338.775 68.5741L339.226 66.6258C335.839 65.8404 332.379 65.448 328.848 65.448V67.448ZM338.791 68.5778C342.069 69.2802 344.922 70.3281 347.364 71.7103L348.349 69.9697C345.703 68.4719 342.652 67.3598 339.21 66.6222L338.791 68.5778ZM346.933 70.4565L341.821 82.7685L343.668 83.5355L348.78 71.2235L346.933 70.4565ZM343.195 82.2593C338.146 79.7103 333.312 78.408 328.704 78.408V80.408C332.929 80.408 337.455 81.6017 342.294 84.0447L343.195 82.2593ZM328.704 78.408C326.472 78.408 324.652 78.6727 323.355 79.2997C322.693 79.6198 322.132 80.0512 321.739 80.6224C321.339 81.2016 321.152 81.866 321.152 82.576H323.152C323.152 82.23 323.239 81.9704 323.385 81.7576C323.537 81.5368 323.796 81.3082 324.226 81.1003C325.113 80.6713 326.569 80.408 328.704 80.408V78.408ZM321.152 82.576C321.152 83.3152 321.397 83.9878 321.874 84.5529C322.335 85.0995 322.977 85.5037 323.719 85.8061L324.474 83.9539C323.92 83.7283 323.59 83.4845 323.403 83.2631C323.231 83.0601 323.152 82.8448 323.152 82.576H321.152ZM323.749 85.8177C325.127 86.3283 327.333 86.8686 330.314 87.4458L330.694 85.4822C327.724 84.9073 325.657 84.3917 324.444 83.9423L323.749 85.8177ZM330.32 87.4469C334.126 88.1604 337.309 88.988 339.883 89.9238L340.566 88.0442C337.86 87.06 334.563 86.2076 330.689 85.4811L330.32 87.4469ZM339.898 89.9292C342.376 90.7852 344.515 92.2019 346.325 94.1927L347.804 92.8473C345.774 90.6141 343.353 89.0068 340.551 88.0388L339.898 89.9292ZM346.333 94.2017C348.086 96.0834 349.016 98.6955 349.016 102.16H351.016C351.016 98.3285 349.979 95.1806 347.796 92.8383L346.333 94.2017ZM349.016 102.16C349.016 105.128 348.188 107.811 346.528 110.235L348.177 111.365C350.068 108.605 351.016 105.528 351.016 102.16H349.016ZM346.532 110.228C344.886 112.586 342.387 114.522 338.964 116.002L339.757 117.838C343.438 116.246 346.267 114.102 348.172 111.372L346.532 110.228ZM338.97 116C335.622 117.421 331.491 118.152 326.544 118.152V120.152C331.677 120.152 336.091 119.395 339.751 117.84L338.97 116ZM361.625 117.784L361.388 118.756L361.395 118.757L361.402 118.759L361.625 117.784ZM351.905 113.968L350.99 113.564L350.639 114.358L351.376 114.817L351.905 113.968ZM357.377 101.584L357.878 100.719L356.913 100.159L356.462 101.18L357.377 101.584ZM365.441 104.968L365.162 105.928L365.169 105.93L365.176 105.932L365.441 104.968ZM379.049 105.544L379.443 106.463L379.461 106.455L379.479 106.447L379.049 105.544ZM378.545 101.08L378.167 102.006L378.179 102.011L378.545 101.08ZM372.065 99.352L371.859 100.331L371.863 100.331L372.065 99.352ZM362.345 96.76L361.997 97.6977L362.005 97.7006L362.013 97.7033L362.345 96.76ZM355.577 92.152L354.829 92.8164L354.837 92.8247L355.577 92.152ZM355.361 74.8L356.186 75.3652L356.186 75.3652L355.361 74.8ZM363.281 68.68L362.894 67.7576L362.89 67.7596L363.281 68.68ZM386.321 67.6L386.095 68.5741L386.103 68.576L386.111 68.5778L386.321 67.6ZM395.177 70.84L396.1 71.2235L396.44 70.4058L395.669 69.9697L395.177 70.84ZM390.065 83.152L389.614 84.0447L390.575 84.53L390.988 83.5355L390.065 83.152ZM371.417 84.88L371.039 85.8061L371.054 85.8122L371.069 85.8177L371.417 84.88ZM377.825 86.464L377.635 87.4458L377.64 87.4469L377.825 86.464ZM387.545 88.984L387.203 89.9238L387.211 89.9266L387.218 89.9292L387.545 88.984ZM394.385 93.52L393.645 94.1927L393.653 94.2017L394.385 93.52ZM394.673 110.8L395.493 111.372L395.498 111.365L394.673 110.8ZM386.681 116.92L387.072 117.84L387.078 117.838L386.681 116.92ZM373.865 118.152C369.762 118.152 365.757 117.704 361.848 116.809L361.402 118.759C365.46 119.688 369.615 120.152 373.865 120.152V118.152ZM361.862 116.812C357.995 115.869 354.862 114.631 352.433 113.119L351.376 114.817C354.036 116.473 357.382 117.779 361.388 118.756L361.862 116.812ZM352.819 114.372L358.291 101.988L356.462 101.18L350.99 113.564L352.819 114.372ZM356.875 102.449C359.353 103.886 362.117 105.044 365.162 105.928L365.72 104.008C362.813 103.164 360.201 102.066 357.878 100.719L356.875 102.449ZM365.176 105.932C368.228 106.769 371.173 107.192 374.009 107.192V105.192C371.373 105.192 368.606 104.799 365.705 104.004L365.176 105.932ZM374.009 107.192C376.376 107.192 378.234 106.981 379.443 106.463L378.655 104.625C377.848 104.971 376.345 105.192 374.009 105.192V107.192ZM379.479 106.447C380.09 106.156 380.617 105.767 380.993 105.249C381.376 104.719 381.561 104.109 381.561 103.456H379.561C379.561 103.715 379.493 103.909 379.373 104.075C379.244 104.253 379.016 104.452 378.619 104.641L379.479 106.447ZM381.561 103.456C381.561 102.695 381.311 102.003 380.819 101.423C380.343 100.862 379.679 100.451 378.91 100.149L378.179 102.011C378.754 102.237 379.099 102.486 379.294 102.717C379.474 102.929 379.561 103.161 379.561 103.456H381.561ZM378.922 100.154C377.535 99.5886 375.297 98.9979 372.267 98.3726L371.863 100.331C374.881 100.954 376.963 101.515 378.167 102.006L378.922 100.154ZM372.27 98.3733C368.408 97.5627 365.214 96.7093 362.677 95.8167L362.013 97.7033C364.66 98.6347 367.946 99.5093 371.859 100.331L372.27 98.3733ZM362.692 95.8223C360.255 94.9197 358.133 93.4768 356.317 91.4793L354.837 92.8247C356.861 95.0512 359.25 96.6803 361.997 97.6977L362.692 95.8223ZM356.324 91.4876C354.606 89.5549 353.697 86.9095 353.697 83.44H351.697C351.697 87.2665 352.707 90.4291 354.829 92.8164L356.324 91.4876ZM353.697 83.44C353.697 80.472 354.525 77.7893 356.186 75.3652L354.536 74.2348C352.645 76.9947 351.697 80.072 351.697 83.44H353.697ZM356.186 75.3652C357.833 72.9611 360.306 71.0298 363.672 69.6004L362.89 67.7596C359.248 69.3062 356.441 71.4549 354.536 74.2348L356.186 75.3652ZM363.667 69.6023C367.065 68.1788 371.222 67.448 376.169 67.448V65.448C371.035 65.448 366.6 66.2052 362.894 67.7577L363.667 69.6023ZM376.169 67.448C379.55 67.448 382.858 67.8236 386.095 68.5741L386.547 66.6258C383.159 65.8404 379.7 65.448 376.169 65.448V67.448ZM386.111 68.5778C389.389 69.2802 392.242 70.3281 394.684 71.7103L395.669 69.9697C393.023 68.4719 389.973 67.3598 386.53 66.6222L386.111 68.5778ZM394.253 70.4565L389.141 82.7685L390.988 83.5355L396.1 71.2235L394.253 70.4565ZM390.515 82.2593C385.466 79.7103 380.632 78.408 376.025 78.408V80.408C380.249 80.408 384.775 81.6017 389.614 84.0447L390.515 82.2593ZM376.025 78.408C373.792 78.408 371.972 78.6727 370.675 79.2997C370.014 79.6198 369.453 80.0512 369.059 80.6224C368.66 81.2016 368.473 81.866 368.473 82.576H370.473C370.473 82.23 370.559 81.9704 370.706 81.7576C370.858 81.5368 371.116 81.3082 371.546 81.1003C372.433 80.6713 373.889 80.408 376.025 80.408V78.408ZM368.473 82.576C368.473 83.3152 368.718 83.9878 369.194 84.5529C369.656 85.0995 370.297 85.5037 371.039 85.8061L371.794 83.9539C371.24 83.7283 370.91 83.4845 370.723 83.2631C370.552 83.0601 370.473 82.8448 370.473 82.576H368.473ZM371.069 85.8177C372.448 86.3283 374.653 86.8686 377.635 87.4458L378.015 85.4822C375.045 84.9073 372.978 84.3917 371.764 83.9423L371.069 85.8177ZM377.64 87.4469C381.446 88.1604 384.63 88.988 387.203 89.9238L387.886 88.0442C385.18 87.06 381.884 86.2076 378.009 85.4811L377.64 87.4469ZM387.218 89.9292C389.696 90.7852 391.835 92.2019 393.645 94.1927L395.125 92.8473C393.094 90.6141 390.673 89.0068 387.871 88.0388L387.218 89.9292ZM393.653 94.2017C395.407 96.0834 396.337 98.6955 396.337 102.16H398.337C398.337 98.3285 397.299 95.1806 395.116 92.8383L393.653 94.2017ZM396.337 102.16C396.337 105.128 395.509 107.811 393.848 110.235L395.498 111.365C397.389 108.605 398.337 105.528 398.337 102.16H396.337ZM393.853 110.228C392.206 112.586 389.707 114.522 386.284 116.002L387.078 117.838C390.758 116.246 393.587 114.102 395.493 111.372L393.853 110.228ZM386.29 116C382.943 117.421 378.812 118.152 373.865 118.152V120.152C378.998 120.152 383.411 119.395 387.072 117.84L386.29 116ZM428.673 87.544L427.961 86.8423L426.728 88.0938L428.433 88.5148L428.673 87.544ZM437.601 92.8L436.825 93.43L436.831 93.4381L436.838 93.4459L437.601 92.8ZM438.249 110.368L437.405 109.831L437.403 109.835L438.249 110.368ZM430.617 116.704L431.044 117.608L431.044 117.608L430.617 116.704ZM407.073 118L406.859 118.977L406.862 118.977L407.073 118ZM397.857 114.616L396.948 114.198L396.564 115.035L397.366 115.487L397.857 114.616ZM403.617 102.088L404.12 101.223L403.168 100.67L402.708 101.67L403.617 102.088ZM410.241 104.824L409.985 105.791L409.989 105.792L410.241 104.824ZM421.905 104.752L421.416 103.879L421.416 103.879L421.905 104.752ZM411.033 98.416H410.033V99.416H411.033V98.416ZM411.033 87.976L410.319 87.2757L410.033 87.5674V87.976H411.033ZM418.449 80.416L419.163 81.1163L420.831 79.416H418.449V80.416ZM400.449 80.416H399.449V81.416H400.449V80.416ZM400.449 67.6V66.6H399.449V67.6H400.449ZM438.033 67.6H439.033V66.6H438.033V67.6ZM438.033 78.04L438.746 78.7417L439.033 78.4497V78.04H438.033ZM428.433 88.5148C432.158 89.4346 434.926 91.0898 436.825 93.43L438.378 92.17C436.148 89.4222 432.964 87.5734 428.913 86.5732L428.433 88.5148ZM436.838 93.4459C438.783 95.7453 439.769 98.5345 439.769 101.872H441.769C441.769 98.1055 440.643 94.8467 438.364 92.1541L436.838 93.4459ZM439.769 101.872C439.769 104.699 438.987 107.346 437.405 109.831L439.093 110.905C440.871 108.11 441.769 105.093 441.769 101.872H439.769ZM437.403 109.835C435.895 112.23 433.516 114.229 430.19 115.8L431.044 117.608C434.63 115.915 437.339 113.69 439.095 110.901L437.403 109.835ZM430.19 115.8C426.905 117.351 422.766 118.152 417.729 118.152V120.152C422.965 120.152 427.417 119.321 431.044 117.608L430.19 115.8ZM417.729 118.152C414.25 118.152 410.769 117.776 407.284 117.023L406.862 118.977C410.482 119.76 414.104 120.152 417.729 120.152V118.152ZM407.287 117.023C403.863 116.273 400.887 115.176 398.348 113.745L397.366 115.487C400.107 117.032 403.275 118.191 406.859 118.977L407.287 117.023ZM398.766 115.034L404.526 102.506L402.708 101.67L396.948 114.198L398.766 115.034ZM403.114 102.953C405.257 104.198 407.548 105.144 409.985 105.791L410.497 103.857C408.23 103.256 406.105 102.378 404.12 101.223L403.114 102.953ZM409.989 105.792C412.462 106.435 414.85 106.76 417.153 106.76V104.76C415.04 104.76 412.82 104.461 410.493 103.856L409.989 105.792ZM417.153 106.76C419.223 106.76 420.994 106.408 422.394 105.625L421.416 103.879C420.416 104.44 419.019 104.76 417.153 104.76V106.76ZM422.394 105.625C423.87 104.798 424.705 103.525 424.705 101.872H422.705C422.705 102.715 422.34 103.362 421.416 103.879L422.394 105.625ZM424.705 101.872C424.705 100.364 424.017 99.1693 422.712 98.4143C421.489 97.7074 419.785 97.416 417.729 97.416V99.416C419.657 99.416 420.941 99.7006 421.71 100.146C422.397 100.543 422.705 101.076 422.705 101.872H424.705ZM417.729 97.416H411.033V99.416H417.729V97.416ZM412.033 98.416V87.976H410.033V98.416H412.033ZM411.747 88.6763L419.163 81.1163L417.735 79.7157L410.319 87.2757L411.747 88.6763ZM418.449 79.416H400.449V81.416H418.449V79.416ZM401.449 80.416V67.6H399.449V80.416H401.449ZM400.449 68.6H438.033V66.6H400.449V68.6ZM437.033 67.6V78.04H439.033V67.6H437.033ZM437.321 77.3383L427.961 86.8423L429.386 88.2457L438.746 78.7417L437.321 77.3383ZM446.62 93.88L445.913 94.5871L445.922 94.5967L445.932 94.606L446.62 93.88ZM446.62 80.488L447.307 81.2145L447.307 81.214L446.62 80.488ZM460.228 80.488L459.53 81.2047L459.54 81.2143L459.55 81.2235L460.228 80.488ZM460.228 93.88L460.925 94.5967L460.925 94.5965L460.228 93.88ZM446.62 116.128L445.913 116.835L445.922 116.845L445.932 116.854L446.62 116.128ZM446.62 102.736L447.307 103.462L447.307 103.462L446.62 102.736ZM460.228 102.736L459.53 103.453L459.54 103.462L459.55 103.472L460.228 102.736ZM460.228 116.128L460.925 116.845L460.925 116.844L460.228 116.128ZM453.46 95.472C450.955 95.472 448.928 94.6897 447.307 93.154L445.932 94.606C447.959 96.5263 450.493 97.472 453.46 97.472V95.472ZM447.327 93.1729C445.756 91.6021 444.956 89.6089 444.956 87.112H442.956C442.956 90.0871 443.931 92.6059 445.913 94.5871L447.327 93.1729ZM444.956 87.112C444.956 84.6147 445.755 82.6821 447.307 81.2145L445.932 79.7615C443.932 81.6539 442.956 84.1373 442.956 87.112H444.956ZM447.307 81.214C448.928 79.6783 450.955 78.896 453.46 78.896V76.896C450.493 76.896 447.959 77.8417 445.932 79.762L447.307 81.214ZM453.46 78.896C455.965 78.896 457.961 79.678 459.53 81.2047L460.925 79.7713C458.942 77.842 456.426 76.896 453.46 76.896V78.896ZM459.55 81.2235C461.146 82.6935 461.964 84.6234 461.964 87.112H463.964C463.964 84.1286 462.957 81.6425 460.905 79.7525L459.55 81.2235ZM461.964 87.112C461.964 89.6005 461.145 91.5908 459.53 93.1635L460.925 94.5965C462.958 92.6172 463.964 90.0955 463.964 87.112H461.964ZM459.53 93.1633C457.961 94.69 455.965 95.472 453.46 95.472V97.472C456.426 97.472 458.942 96.526 460.925 94.5967L459.53 93.1633ZM453.46 117.72C450.955 117.72 448.928 116.938 447.307 115.402L445.932 116.854C447.959 118.774 450.493 119.72 453.46 119.72V117.72ZM447.327 115.421C445.756 113.85 444.956 111.857 444.956 109.36H442.956C442.956 112.335 443.931 114.854 445.913 116.835L447.327 115.421ZM444.956 109.36C444.956 106.863 445.755 104.93 447.307 103.462L445.932 102.01C443.932 103.902 442.956 106.385 442.956 109.36H444.956ZM447.307 103.462C448.928 101.926 450.955 101.144 453.46 101.144V99.144C450.493 99.144 447.959 100.09 445.932 102.01L447.307 103.462ZM453.46 101.144C455.965 101.144 457.961 101.926 459.53 103.453L460.925 102.019C458.942 100.09 456.426 99.144 453.46 99.144V101.144ZM459.55 103.472C461.146 104.941 461.964 106.871 461.964 109.36H463.964C463.964 106.377 462.957 103.891 460.905 102L459.55 103.472ZM461.964 109.36C461.964 111.849 461.145 113.839 459.53 115.412L460.925 116.844C462.958 114.865 463.964 112.343 463.964 109.36H461.964ZM459.53 115.411C457.961 116.938 455.965 117.72 453.46 117.72V119.72C456.426 119.72 458.942 118.774 460.925 116.845L459.53 115.411ZM489.552 57.376V56.376H488.843L488.608 57.0454L489.552 57.376ZM503.952 57.376L504.896 57.7066L505.362 56.376H503.952V57.376ZM480.192 125.2V126.2H480.901L481.136 125.531L480.192 125.2ZM465.792 125.2L464.848 124.869L464.382 126.2H465.792V125.2ZM489.552 58.376H503.952V56.376H489.552V58.376ZM503.008 57.0454L479.248 124.869L481.136 125.531L504.896 57.7066L503.008 57.0454ZM480.192 124.2H465.792V126.2H480.192V124.2ZM466.736 125.531L490.496 57.7066L488.608 57.0454L464.848 124.869L466.736 125.531ZM515.497 57.376V56.376H514.788L514.553 57.0454L515.497 57.376ZM529.897 57.376L530.841 57.7066L531.307 56.376H529.897V57.376ZM506.137 125.2V126.2H506.846L507.081 125.531L506.137 125.2ZM491.737 125.2L490.793 124.869L490.327 126.2H491.737V125.2ZM515.497 58.376H529.897V56.376H515.497V58.376ZM528.953 57.0454L505.193 124.869L507.081 125.531L530.841 57.7066L528.953 57.0454ZM506.137 124.2H491.737V126.2H506.137V124.2ZM492.681 125.531L516.441 57.7066L514.553 57.0454L490.793 124.869L492.681 125.531ZM535.8 117.808L535.563 118.78L535.57 118.781L535.577 118.783L535.8 117.808ZM527.16 114.416L526.245 114.012L525.895 114.806L526.632 115.265L527.16 114.416ZM532.024 103.408L532.526 102.543L531.56 101.983L531.109 103.004L532.024 103.408ZM539.192 106.416L538.913 107.376L538.92 107.378L538.928 107.38L539.192 106.416ZM551.288 106.928L551.682 107.847L551.7 107.839L551.718 107.831L551.288 106.928ZM550.84 102.96L550.463 103.886L550.474 103.891L550.84 102.96ZM545.08 101.424L544.875 102.403L544.878 102.403L545.08 101.424ZM536.44 99.12L536.093 100.058L536.1 100.061L536.108 100.063L536.44 99.12ZM530.424 95.024L529.677 95.6884L529.684 95.6967L530.424 95.024ZM530.232 79.6L531.057 80.1652L531.057 80.1652L530.232 79.6ZM537.272 74.16L536.886 73.2376L536.881 73.2396L537.272 74.16ZM557.752 73.2L557.526 74.1741L557.534 74.176L557.543 74.1778L557.752 73.2ZM565.624 76.08L566.548 76.4635L566.887 75.6458L566.117 75.2097L565.624 76.08ZM561.08 87.024L560.629 87.9167L561.591 88.402L562.004 87.4075L561.08 87.024ZM544.504 88.56L544.127 89.4861L544.142 89.4922L544.157 89.4977L544.504 88.56ZM550.2 89.968L550.01 90.9498L550.016 90.9509L550.2 89.968ZM558.84 92.208L558.498 93.1478L558.506 93.1506L558.514 93.1532L558.84 92.208ZM564.92 96.24L564.18 96.9127L564.189 96.9217L564.92 96.24ZM565.176 111.6L565.996 112.172L566.001 112.165L565.176 111.6ZM558.072 117.04L558.463 117.96L558.469 117.958L558.072 117.04ZM546.68 118.024C543.042 118.024 539.49 117.627 536.023 116.833L535.577 118.783C539.193 119.611 542.895 120.024 546.68 120.024V118.024ZM536.037 116.836C532.608 116 529.835 114.903 527.689 113.567L526.632 115.265C529.008 116.745 531.995 117.909 535.563 118.78L536.037 116.836ZM528.075 114.82L532.939 103.812L531.109 103.004L526.245 114.012L528.075 114.82ZM531.522 104.273C533.734 105.555 536.199 106.588 538.913 107.376L539.471 105.456C536.895 104.708 534.581 103.735 532.526 102.543L531.522 104.273ZM538.928 107.38C541.648 108.126 544.276 108.504 546.808 108.504V106.504C544.476 106.504 542.027 106.156 539.457 105.452L538.928 107.38ZM546.808 108.504C548.914 108.504 550.585 108.317 551.682 107.847L550.894 106.009C550.199 106.307 548.883 106.504 546.808 106.504V108.504ZM551.718 107.831C552.273 107.566 552.759 107.21 553.106 106.731C553.461 106.24 553.632 105.674 553.632 105.072H551.632C551.632 105.28 551.579 105.43 551.486 105.557C551.385 105.697 551.199 105.863 550.858 106.025L551.718 107.831ZM553.632 105.072C553.632 104.37 553.401 103.729 552.947 103.193C552.508 102.676 551.9 102.302 551.206 102.029L550.474 103.891C550.975 104.087 551.263 104.3 551.422 104.487C551.564 104.655 551.632 104.835 551.632 105.072H553.632ZM551.217 102.034C549.974 101.527 547.976 101.001 545.282 100.445L544.878 102.403C547.56 102.957 549.402 103.454 550.463 103.886L551.217 102.034ZM545.286 100.445C541.855 99.7254 539.021 98.968 536.772 98.1767L536.108 100.063C538.467 100.893 541.393 101.672 544.875 102.403L545.286 100.445ZM536.787 98.1823C534.639 97.3864 532.767 96.1141 531.164 94.3513L529.684 95.6967C531.495 97.6885 533.634 99.1469 536.093 100.058L536.787 98.1823ZM531.172 94.3596C529.667 92.6669 528.864 90.3442 528.864 87.28H526.864C526.864 90.7011 527.768 93.5411 529.677 95.6884L531.172 94.3596ZM528.864 87.28C528.864 84.664 529.593 82.3013 531.057 80.1652L529.407 79.0348C527.713 81.5067 526.864 84.264 526.864 87.28H528.864ZM531.057 80.1652C532.507 78.0491 534.687 76.3444 537.663 75.0804L536.881 73.2396C533.628 74.6209 531.115 76.5429 529.407 79.0348L531.057 80.1652ZM537.659 75.0823C540.662 73.8241 544.342 73.176 548.728 73.176V71.176C544.154 71.176 540.197 71.8506 536.886 73.2377L537.659 75.0823ZM548.728 73.176C551.725 73.176 554.658 73.5089 557.526 74.1741L557.978 72.2258C554.959 71.5257 551.875 71.176 548.728 71.176V73.176ZM557.543 74.1778C560.447 74.8002 562.972 75.7281 565.132 76.9503L566.117 75.2097C563.753 73.8719 561.031 72.8798 557.962 72.2222L557.543 74.1778ZM564.701 75.6965L560.157 86.6405L562.004 87.4075L566.548 76.4635L564.701 75.6965ZM561.531 86.1313C557.031 83.8596 552.717 82.696 548.6 82.696V84.696C552.334 84.696 556.34 85.7511 560.629 87.9167L561.531 86.1313ZM548.6 82.696C546.61 82.696 544.972 82.9314 543.797 83.4997C543.196 83.7904 542.68 84.1852 542.317 84.7124C541.948 85.2476 541.776 85.8607 541.776 86.512H543.776C543.776 86.2247 543.847 86.0164 543.963 85.8476C544.085 85.6708 544.298 85.4789 544.667 85.3003C545.433 84.9299 546.707 84.696 548.6 84.696V82.696ZM541.776 86.512C541.776 87.1952 542.003 87.8185 542.444 88.3409C542.869 88.8448 543.457 89.213 544.127 89.4861L544.881 87.6339C544.4 87.4376 544.123 87.2299 543.972 87.0511C543.837 86.8908 543.776 86.7248 543.776 86.512H541.776ZM544.157 89.4977C545.391 89.9549 547.359 90.4366 550.01 90.9498L550.39 88.9862C547.751 88.4753 545.921 88.0184 544.851 87.6223L544.157 89.4977ZM550.016 90.9509C553.395 91.5844 556.218 92.3187 558.498 93.1478L559.182 91.2682C556.769 90.3906 553.832 89.6316 550.384 88.9851L550.016 90.9509ZM558.514 93.1532C560.698 93.9079 562.584 95.1566 564.18 96.9127L565.66 95.5673C563.843 93.5688 561.675 92.1295 559.167 91.2628L558.514 93.1532ZM564.189 96.9217C565.723 98.5687 566.544 100.861 566.544 103.92H568.544C568.544 100.494 567.616 97.6659 565.652 95.5583L564.189 96.9217ZM566.544 103.92C566.544 106.536 565.815 108.899 564.351 111.035L566.001 112.165C567.695 109.693 568.544 106.936 568.544 103.92H566.544ZM564.356 111.028C562.907 113.103 560.704 114.812 557.675 116.122L558.469 117.958C561.755 116.537 564.288 114.619 565.996 112.172L564.356 111.028ZM557.681 116.12C554.723 117.376 551.067 118.024 546.68 118.024V120.024C551.253 120.024 555.192 119.35 558.463 117.96L557.681 116.12ZM579.719 116.336L579.276 117.233L579.281 117.235L579.719 116.336ZM572.359 109.872L571.513 110.406L571.519 110.415L572.359 109.872ZM572.359 91.12L571.519 90.5773L571.517 90.5806L572.359 91.12ZM579.719 84.656L579.281 83.7568L579.276 83.7591L579.719 84.656ZM601.351 85.104L600.833 85.9594L600.833 85.9594L601.351 85.104ZM607.623 92.72L608.064 93.6175L608.863 93.2246L608.565 92.3852L607.623 92.72ZM596.423 98.224L595.509 98.6301L595.931 99.5799L596.864 99.1215L596.423 98.224ZM586.055 95.408L585.335 94.7139L585.328 94.7206L585.322 94.7275L586.055 95.408ZM586.055 105.584L585.322 106.264L585.328 106.271L585.335 106.278L586.055 105.584ZM596.423 102.768L596.864 101.871L595.931 101.412L595.509 102.362L596.423 102.768ZM607.623 108.272L608.565 108.607L608.863 107.767L608.064 107.375L607.623 108.272ZM601.351 115.888L601.869 116.743L601.869 116.743L601.351 115.888ZM590.407 117.64C586.57 117.64 583.16 116.898 580.156 115.437L579.281 117.235C582.592 118.846 586.307 119.64 590.407 119.64V117.64ZM580.161 115.439C577.2 113.979 574.887 111.943 573.199 109.329L571.519 110.415C573.414 113.348 576.008 115.621 579.276 117.233L580.161 115.439ZM573.204 109.338C571.563 106.736 570.735 103.787 570.735 100.464H568.735C568.735 104.138 569.656 107.462 571.513 110.406L573.204 109.338ZM570.735 100.464C570.735 97.1408 571.563 94.2163 573.201 91.6594L571.517 90.5806C569.656 93.485 568.735 96.7898 568.735 100.464H570.735ZM573.199 91.6627C574.887 89.0492 577.2 87.0132 580.161 85.5529L579.276 83.7591C576.008 85.3708 573.414 87.6441 571.519 90.5773L573.199 91.6627ZM580.156 85.5552C583.16 84.0937 586.57 83.352 590.407 83.352V81.352C586.307 81.352 582.592 82.1463 579.281 83.7568L580.156 85.5552ZM590.407 83.352C594.528 83.352 597.989 84.237 600.833 85.9594L601.869 84.2486C598.654 82.3016 594.818 81.352 590.407 81.352V83.352ZM600.833 85.9594C603.671 87.6784 605.608 90.0361 606.68 93.0548L608.565 92.3852C607.333 88.9185 605.089 86.199 601.869 84.2486L600.833 85.9594ZM607.182 91.8225L595.982 97.3265L596.864 99.1215L608.064 93.6175L607.182 91.8225ZM597.336 97.8179C596.607 96.1755 595.667 94.8687 594.483 93.971C593.285 93.0635 591.891 92.616 590.343 92.616V94.616C591.482 94.616 592.445 94.9365 593.275 95.565C594.117 96.2033 594.873 97.2005 595.509 98.6301L597.336 97.8179ZM590.343 92.616C588.373 92.616 586.681 93.3176 585.335 94.7139L586.774 96.1021C587.732 95.1091 588.899 94.616 590.343 94.616V92.616ZM585.322 94.7275C583.99 96.162 583.391 98.1219 583.391 100.464H585.391C585.391 98.4541 585.901 97.0434 586.787 96.0885L585.322 94.7275ZM583.391 100.464C583.391 102.843 583.987 104.827 585.322 106.264L586.787 104.904C585.904 103.952 585.391 102.523 585.391 100.464H583.391ZM585.335 106.278C586.681 107.674 588.373 108.376 590.343 108.376V106.376C588.899 106.376 587.732 105.883 586.774 104.89L585.335 106.278ZM590.343 108.376C591.891 108.376 593.285 107.929 594.483 107.021C595.667 106.123 596.607 104.816 597.336 103.174L595.509 102.362C594.873 103.792 594.117 104.789 593.275 105.427C592.445 106.055 591.482 106.376 590.343 106.376V108.376ZM595.982 103.665L607.182 109.169L608.064 107.375L596.864 101.871L595.982 103.665ZM606.68 107.937C605.608 110.956 603.671 113.314 600.833 115.033L601.869 116.743C605.089 114.793 607.333 112.073 608.565 108.607L606.68 107.937ZM600.833 115.033C597.989 116.755 594.528 117.64 590.407 117.64V119.64C594.818 119.64 598.654 118.69 601.869 116.743L600.833 115.033ZM640.726 86.512L640.076 87.272L640.081 87.2769L640.726 86.512ZM645.59 118V119H646.59V118H645.59ZM632.15 118H631.15V119H632.15V118ZM632.15 113.392H633.15L631.247 112.962L632.15 113.392ZM615.126 117.232L614.671 118.122L614.682 118.128L614.694 118.134L615.126 117.232ZM610.71 113.328L609.848 113.836L609.856 113.849L609.864 113.862L610.71 113.328ZM613.206 99.888L612.645 99.0601L612.645 99.0601L613.206 99.888ZM631.062 97.2V98.2H632.248L632.047 97.0306L631.062 97.2ZM619.67 93.872L619.948 94.8326L619.959 94.8292L619.971 94.8256L619.67 93.872ZM615.51 95.856L614.609 96.2911L615.135 97.3783L616.105 96.6596L615.51 95.856ZM610.902 86.32L610.377 85.469L609.609 85.9427L610.001 86.7551L610.902 86.32ZM618.134 83.44L618.369 84.4119L618.38 84.4093L618.134 83.44ZM629.334 109.104L628.769 108.279L628.769 108.279L629.334 109.104ZM631.126 106.608L632.071 106.935L632.126 106.776V106.608H631.126ZM631.126 104.176H632.126V103.176H631.126V104.176ZM624.022 109.168L623.341 109.901L623.368 109.926L623.397 109.949L624.022 109.168ZM626.646 83.352C632.654 83.352 637.079 84.7094 640.076 87.272L641.376 85.752C637.886 82.7679 632.925 81.352 626.646 81.352V83.352ZM640.081 87.2769C643.027 89.7571 644.59 93.6528 644.59 99.184H646.59C646.59 93.2805 644.91 88.7282 641.37 85.7471L640.081 87.2769ZM644.59 99.184V118H646.59V99.184H644.59ZM645.59 117H632.15V119H645.59V117ZM633.15 118V113.392H631.15V118H633.15ZM631.247 112.962C629.797 116.01 626.921 117.64 622.23 117.64V119.64C627.436 119.64 631.174 117.771 633.053 113.822L631.247 112.962ZM622.23 117.64C619.566 117.64 617.353 117.189 615.557 116.33L614.694 118.134C616.823 119.152 619.347 119.64 622.23 119.64V117.64ZM615.581 116.342C613.8 115.431 612.472 114.245 611.555 112.794L609.864 113.862C610.995 115.653 612.611 117.07 614.671 118.122L615.581 116.342ZM611.571 112.82C610.686 111.319 610.238 109.64 610.238 107.76H608.238C608.238 109.976 608.771 112.009 609.848 113.836L611.571 112.82ZM610.238 107.76C610.238 104.604 611.421 102.305 613.766 100.716L612.645 99.0601C609.699 101.055 608.238 104.004 608.238 107.76H610.238ZM613.766 100.716C616.168 99.0892 619.939 98.2 625.238 98.2V96.2C619.784 96.2 615.534 97.1028 612.645 99.0601L613.766 100.716ZM625.238 98.2H631.062V96.2H625.238V98.2ZM632.047 97.0306C631.768 95.4062 630.95 94.1238 629.589 93.2786C628.27 92.4591 626.529 92.104 624.47 92.104V94.104C626.335 94.104 627.655 94.4316 628.534 94.9774C629.371 95.4975 629.886 96.2631 630.076 97.3694L632.047 97.0306ZM624.47 92.104C622.781 92.104 621.08 92.378 619.368 92.9184L619.971 94.8256C621.502 94.342 623.001 94.104 624.47 94.104V92.104ZM619.392 92.9114C617.676 93.4081 616.177 94.117 614.914 95.0524L616.105 96.6596C617.146 95.8883 618.421 95.2746 619.948 94.8326L619.392 92.9114ZM616.41 95.4209L611.802 85.8849L610.001 86.7551L614.609 96.2911L616.41 95.4209ZM611.427 87.171C613.325 86 615.633 85.0752 618.369 84.4118L617.898 82.4681C615.002 83.1701 612.489 84.1654 610.377 85.469L611.427 87.171ZM618.38 84.4093C621.162 83.7034 623.916 83.352 626.646 83.352V81.352C623.743 81.352 620.823 81.7259 617.888 82.4707L618.38 84.4093ZM626.582 110.936C627.798 110.936 628.914 110.603 629.898 109.929L628.769 108.279C628.132 108.715 627.413 108.936 626.582 108.936V110.936ZM629.898 109.929C630.918 109.231 631.631 108.206 632.071 106.935L630.181 106.281C629.853 107.228 629.37 107.867 628.769 108.279L629.898 109.929ZM632.126 106.608V104.176H630.126V106.608H632.126ZM631.126 103.176H627.542V105.176H631.126V103.176ZM627.542 103.176C625.99 103.176 624.652 103.429 623.675 104.08C622.627 104.779 622.126 105.847 622.126 107.12H624.126C624.126 106.43 624.361 106.027 624.784 105.744C625.28 105.414 626.149 105.176 627.542 105.176V103.176ZM622.126 107.12C622.126 108.21 622.541 109.158 623.341 109.901L624.702 108.435C624.307 108.069 624.126 107.651 624.126 107.12H622.126ZM623.397 109.949C624.262 110.641 625.357 110.936 626.582 110.936V108.936C625.673 108.936 625.062 108.719 624.646 108.387L623.397 109.949ZM686.529 86.256L685.821 86.9631L685.827 86.9688L686.529 86.256ZM690.497 118V119H691.497V118H690.497ZM676.033 118H675.033V119H676.033V118ZM667.777 96.24L667.029 95.5756L667.028 95.5774L667.777 96.24ZM666.305 118V119H667.305V118H666.305ZM651.841 118H650.841V119H651.841V118ZM651.841 82.992V81.992H650.841V82.992H651.841ZM665.601 82.992H666.601V81.992H665.601V82.992ZM665.601 86.448H664.601V88.8622L666.308 87.1551L665.601 86.448ZM670.337 83.376L670.693 84.3105L670.693 84.3105L670.337 83.376ZM676.161 83.352C680.254 83.352 683.438 84.5799 685.822 86.9631L687.236 85.5489C684.414 82.7268 680.686 81.352 676.161 81.352V83.352ZM685.827 86.9688C688.214 89.3171 689.497 92.9395 689.497 98.032H691.497C691.497 92.6285 690.134 88.4003 687.23 85.5432L685.827 86.9688ZM689.497 98.032V118H691.497V98.032H689.497ZM690.497 117H676.033V119H690.497V117ZM677.033 118V100.528H675.033V118H677.033ZM677.033 100.528C677.033 98.4341 676.665 96.6843 675.775 95.4356C674.841 94.1246 673.438 93.512 671.745 93.512V95.512C672.91 95.512 673.651 95.9021 674.146 96.5964C674.686 97.3531 675.033 98.6112 675.033 100.528H677.033ZM671.745 93.512C669.854 93.512 668.254 94.1979 667.029 95.5756L668.524 96.9044C669.347 95.9781 670.392 95.512 671.745 95.512V93.512ZM667.028 95.5774C665.808 96.9556 665.305 99.0225 665.305 101.552H667.305C667.305 99.2175 667.782 97.7431 668.526 96.9026L667.028 95.5774ZM665.305 101.552V118H667.305V101.552H665.305ZM666.305 117H651.841V119H666.305V117ZM652.841 118V82.992H650.841V118H652.841ZM651.841 83.992H665.601V81.992H651.841V83.992ZM664.601 82.992V86.448H666.601V82.992H664.601ZM666.308 87.1551C667.574 85.8888 669.033 84.9426 670.693 84.3105L669.981 82.4415C668.056 83.1747 666.358 84.2766 664.894 85.7409L666.308 87.1551ZM670.693 84.3105C672.361 83.6749 674.181 83.352 676.161 83.352V81.352C673.959 81.352 671.896 81.7118 669.981 82.4415L670.693 84.3105Z" fill="black"/>
</svg>
